# This file uses centimeters as units for non-parametric coordinates.

mtllib Glass_Hologram.mtl
g default
v -3.994763 -0.000228 -0.997071
v -3.994763 1.011806 -0.997071
v -3.994763 1.992612 -0.997071
v -3.994763 1.992612 0.002929
v -3.994763 1.992612 0.990835
v -3.994763 1.011806 0.990835
v -3.994763 -0.000228 0.990835
v -3.994763 -0.000228 0.002929
v -4.985674 -0.000228 -0.997071
v -4.985674 1.011806 -0.997071
v -4.985674 1.992612 -0.997071
v -4.985674 1.992612 0.002929
v -4.985674 1.992612 0.990835
v -4.985674 1.011806 0.990835
v -4.985674 -0.000228 0.990835
v -4.985674 -0.000228 0.002929
v -3.994763 1.011806 0.002929
v -4.985674 1.011806 0.002929
v -4.985674 1.992612 1.995900
v -4.985674 1.011806 1.995900
v -3.994763 1.011806 1.995900
v -3.994763 1.992612 1.995900
v -4.985674 -0.000228 1.995900
v -3.994763 -0.000228 1.995900
vt 0.498000 0.250000
vt 0.498000 0.250000
vt 0.512400 0.250000
vt 0.512400 0.250000
vt 0.498000 0.250000
vt 0.512400 0.250000
vt 0.512400 0.500000
vt 0.512400 0.500000
vt 0.498000 0.500000
vt 0.498000 0.500000
vt 0.512400 0.500000
vt 0.498000 0.500000
vt 0.512400 0.500000
vt 0.498000 0.500000
vt 0.512400 0.500000
vt 0.512400 0.375760
vt 0.498000 0.375760
vt 0.498000 0.500000
vt 0.512400 0.500000
vt 0.512400 0.500000
vt 0.498000 0.500000
vt 0.498000 0.500000
vt 0.512400 0.500000
vt 0.498000 0.500000
vn 0.000000 0.000000 -1.000000
vn 0.000000 0.000000 -1.000000
vn 0.000000 0.000000 -1.000000
vn 0.000000 0.000000 -1.000000
vn 0.000000 0.000000 -1.000000
vn 0.000000 0.000000 -1.000000
vn 0.000000 0.000000 1.000000
vn 0.000000 0.000000 1.000000
vn 0.000000 0.000000 1.000000
vn 0.000000 0.000000 1.000000
vn 0.000000 0.000000 1.000000
vn 0.000000 0.000000 1.000000
vn -0.000000 -1.000000 0.000000
vn -0.000000 -1.000000 0.000000
vn -0.000000 -1.000000 0.000000
vn -0.000000 -1.000000 0.000000
vn -0.000000 -1.000000 0.000000
vn -0.000000 -1.000000 0.000000
vn -0.000000 -1.000000 0.000000
vn -0.000000 -1.000000 0.000000
vn -1.000000 0.000000 0.000000
vn -1.000000 0.000000 0.000000
vn -1.000000 0.000000 0.000000
vn -1.000000 0.000000 0.000000
vn 1.000000 0.000000 0.000000
vn 1.000000 0.000000 0.000000
vn 1.000000 0.000000 0.000000
vn 1.000000 0.000000 0.000000
vn 1.000000 0.000000 0.000000
vn 1.000000 0.000000 0.000000
vn 1.000000 0.000000 0.000000
vn 1.000000 0.000000 0.000000
vn -1.000000 0.000000 0.000000
vn -1.000000 0.000000 0.000000
vn -1.000000 0.000000 0.000000
vn 1.000000 0.000000 0.000000
vn 1.000000 0.000000 0.000000
vn 1.000000 0.000000 0.000000
vn -1.000000 0.000000 0.000000
vn -1.000000 0.000000 0.000000
vn -1.000000 0.000000 0.000000
vn -1.000000 0.000000 0.000000
vn -1.000000 0.000000 0.000000
vn -1.000000 0.000000 0.000000
vn 1.000000 0.000000 0.000000
vn 1.000000 0.000000 0.000000
vn -1.000000 0.000000 0.000000
vn -0.000000 -1.000000 0.000000
vn -0.000000 -1.000000 0.000000
vn 1.000000 0.000000 0.000000
vn 0.000000 1.000000 0.000000
vn 0.000000 1.000000 0.000000
vn 0.000000 1.000000 0.000000
vn 0.000000 1.000000 0.000000
vn 0.000000 1.000000 0.000000
vn 0.000000 1.000000 0.000000
vn 0.000000 1.000000 0.000000
vn 0.000000 1.000000 0.000000
vn 0.000000 1.000000 0.000000
vn 0.000000 1.000000 0.000000
vn 0.000000 1.000000 0.000000
vn 0.000000 1.000000 0.000000
s 1
g Glass_Hologram1
usemtl lambert11SG
f 2/1/1 1/2/2 9/3/3 10/4/4
f 3/5/5 2/1/1 10/4/4 11/6/6
s 2
f 19/19/7 20/20/8 21/21/9 22/22/10
f 20/20/8 23/23/11 24/24/12 21/21/9
s 3
f 15/11/13 16/13/14 8/14/15 7/12/16
s off
f 9/3/17 1/2/18 8/14/19 16/13/20
s 4
f 12/15/21 18/16/22 14/8/23 13/7/24
s 5
f 2/1/25 17/17/26 8/14/27 1/2/28
f 2/1/29 3/5/30 4/18/31 17/17/32
s 4
f 18/16/33 16/13/34 15/11/35 14/8/23
s 5
f 17/17/32 4/18/31 5/10/36 6/9/37
f 8/14/27 17/17/26 6/9/37 7/12/38
s 4
f 10/4/39 18/16/22 12/15/21 11/6/40
f 10/4/41 9/3/42 16/13/34 18/16/33
f 13/7/24 14/8/23 20/20/43 19/19/44
s 5
f 6/9/37 5/10/36 22/22/45 21/21/46
s 4
f 14/8/23 15/11/35 23/23/47 20/20/43
s 3
f 15/11/13 7/12/16 24/24/48 23/23/49
s 5
f 7/12/38 6/9/37 21/21/46 24/24/50
s off
f 5/10/51 13/7/52 19/19/53 22/22/54
f 4/18/55 12/15/56 13/7/57 5/10/58
f 4/18/59 3/5/60 11/6/61 12/15/62
