# This file uses meters as units for non-parametric coordinates.

mtllib Laser_Fixture_Small.mtl
g default
v 53.488461 34.048874 446.116943
v 51.321072 34.048874 445.750702
v 53.488461 33.002380 444.340210
v 51.321072 33.002380 444.344055
v 53.488461 26.093449 444.340210
v 51.321072 26.093449 444.344055
v 53.488461 25.220438 444.934326
v 51.321072 25.220438 444.934326
v 53.488461 25.220438 452.718292
v 51.321072 25.220432 453.083984
v 53.488461 26.093452 454.500244
v 51.321072 26.093452 454.490631
v 53.488461 33.002380 454.500244
v 51.321072 33.002380 454.490631
v 53.488461 34.048874 452.718292
v 51.321072 34.048874 453.083984
v 52.574963 26.153948 453.560394
v 52.574963 26.153948 445.207550
v 52.574963 33.002384 453.508484
v 52.574963 33.002380 445.274261
v 51.415112 26.113613 453.591949
v 51.420467 26.113613 445.301025
v 51.415108 33.002384 445.286774
v 51.419285 33.002384 453.651642
v 52.574963 27.816809 451.031158
v 52.574963 27.831228 447.732697
v 52.574963 31.115278 451.045593
v 52.574963 31.129698 447.747101
v 52.574963 33.002380 449.286285
v 51.416817 33.002384 448.777893
v 51.321072 34.048874 447.704865
v 53.488461 34.048874 449.608795
v 53.488461 33.002380 449.576019
v 53.488461 26.093449 449.359558
v 53.488461 25.220438 449.332214
v 51.321072 25.220432 449.353516
v 51.417816 26.113613 449.405426
v 52.574963 26.153948 449.283203
v 52.281254 27.816809 451.031158
v 52.281254 27.831228 447.732697
v 52.281254 31.115278 451.045593
v 52.281254 31.129698 447.747101
v 52.281254 28.352324 450.500305
v 52.281254 28.362082 448.268219
v 52.281254 30.584417 450.510071
v 52.281254 30.594175 448.277954
v 50.422485 28.352324 450.500305
v 50.422485 28.362082 448.268219
v 50.422485 30.584417 450.510071
v 50.422485 30.594175 448.277954
v 50.164021 28.615456 450.239471
v 50.164021 28.622921 448.531342
v 50.164021 30.323576 450.246948
v 50.164021 30.331043 448.538818
v 51.356361 33.002384 453.508484
v 51.356361 26.153948 453.560394
v 51.356361 31.115278 451.045593
v 51.356361 27.816809 451.031158
v 51.356361 26.153948 445.207550
v 51.356361 33.002380 445.274261
v 51.356361 27.831228 447.732697
v 51.356361 31.129698 447.747101
v 51.911537 27.816809 451.031158
v 51.911537 27.831228 447.732697
v 51.911537 26.153948 445.207550
v 51.911537 26.153948 449.283203
v 51.911537 26.153948 453.560394
v 51.911537 33.002380 445.274261
v 51.911537 33.002380 449.286285
v 51.911537 31.129698 447.747101
v 51.911537 31.115278 451.045593
v 51.911537 33.002384 453.508484
vt 0.797305 0.285903
vt 0.777870 0.269377
vt 0.797754 0.259111
vt 0.797754 0.144199
vt 0.777870 0.145653
vt 0.777870 0.041210
vt 0.797754 0.026989
vt 0.951111 0.259510
vt 0.951111 0.285903
vt 0.797305 0.001828
vt 0.974407 0.246521
vt 0.951111 0.001828
vt 0.951111 0.025317
vt 0.974407 0.191810
vt 0.951111 0.161768
vt 0.974407 0.041210
vt 0.288683 0.141590
vt 0.288683 0.018462
vt 0.308118 0.001829
vt 0.308118 0.142356
vt 0.308118 0.286280
vt 0.288683 0.236391
vt 0.461923 0.001828
vt 0.461923 0.148416
vt 0.461923 0.286280
vt 0.485220 0.051572
vt 0.485220 0.149334
vt 0.485220 0.236391
vt 0.039495 0.813997
vt 0.039329 0.766175
vt 0.077354 0.765966
vt 0.077521 0.813788
vt 0.116981 0.361083
vt 0.117302 0.453431
vt 0.079962 0.524127
vt 0.079962 0.410021
vt 0.079962 0.290272
vt 0.487889 0.763527
vt 0.486435 0.915986
vt 0.417481 0.873976
vt 0.417078 0.800546
vt 0.231297 0.647015
vt 0.231297 0.759340
vt 0.189607 0.690107
vt 0.189286 0.597759
vt 0.231297 0.528805
vt 0.341710 0.915986
vt 0.339842 0.763527
vt 0.410539 0.800867
vt 0.410942 0.874297
vt 0.260277 0.856279
vt 0.259956 0.763931
vt 0.271877 0.778794
vt 0.272095 0.841286
vt 0.333386 0.763527
vt 0.321568 0.778520
vt 0.333707 0.855875
vt 0.321785 0.841013
vt 0.001992 0.149334
vt 0.001992 0.051572
vt 0.281963 0.041318
vt 0.281963 0.096029
vt 0.281963 0.246629
vt 0.001992 0.236391
vt 0.001992 0.001828
vt 0.281963 0.001936
vt 0.281963 0.286011
vt 0.001992 0.286280
vt 0.771345 0.145922
vt 0.771345 0.269646
vt 0.491374 0.269646
vt 0.491374 0.146518
vt 0.491374 0.051718
vt 0.771345 0.041480
vt 0.771345 0.286173
vt 0.491374 0.286280
vt 0.491374 0.001828
vt 0.771345 0.002098
vt 0.279396 0.404378
vt 0.279396 0.290272
vt 0.428527 0.292888
vt 0.428870 0.407800
vt 0.429219 0.525010
vt 0.279396 0.524127
vt 0.273040 0.426722
vt 0.273261 0.524464
vt 0.123437 0.524814
vt 0.123437 0.412489
vt 0.123437 0.294280
vt 0.272721 0.290272
vt 0.171806 0.859000
vt 0.171806 0.766652
vt 0.209746 0.766652
vt 0.209746 0.859000
vt 0.215881 0.855875
vt 0.215881 0.763527
vt 0.253820 0.763527
vt 0.253820 0.855875
vt 0.678126 0.563764
vt 0.615634 0.563764
vt 0.615634 0.323659
vt 0.678126 0.323659
vt 0.622937 0.290271
vt 0.670759 0.290271
vt 0.553673 0.563764
vt 0.491180 0.563764
vt 0.491180 0.323659
vt 0.553673 0.323659
vt 0.498483 0.290271
vt 0.546306 0.290271
vt 0.876753 0.893050
vt 0.805942 0.893050
vt 0.805942 0.735638
vt 0.876753 0.735638
vt 0.938218 0.731270
vt 0.867522 0.731270
vt 0.867522 0.573858
vt 0.938218 0.573858
vt 0.001992 0.691163
vt 0.001992 0.598815
vt 0.087690 0.598815
vt 0.087690 0.691163
vt 0.001992 0.528118
vt 0.087690 0.528118
vt 0.001992 0.761974
vt 0.087690 0.761974
vt 0.095737 0.762661
vt 0.095737 0.648555
vt 0.181434 0.648555
vt 0.181434 0.762661
vt 0.095737 0.528805
vt 0.181434 0.528805
vt 0.238010 0.641327
vt 0.238010 0.529002
vt 0.323708 0.529002
vt 0.323708 0.641327
vt 0.238010 0.759536
vt 0.323708 0.759536
vt 0.331560 0.690303
vt 0.331560 0.597956
vt 0.417258 0.597956
vt 0.417258 0.690303
vt 0.331560 0.529002
vt 0.417258 0.529002
vt 0.331560 0.759536
vt 0.417258 0.759536
vt 0.844202 0.569866
vt 0.844202 0.289895
vt 0.998008 0.289895
vt 0.998008 0.569866
vt 0.684261 0.570243
vt 0.684261 0.290271
vt 0.838067 0.290271
vt 0.838067 0.570243
vt 0.649983 0.736536
vt 0.799807 0.735638
vt 0.799267 0.888994
vt 0.649983 0.888994
vt 0.494024 0.735638
vt 0.643848 0.735638
vt 0.643156 0.888995
vt 0.494024 0.888097
vt 0.127731 0.840082
vt 0.127731 0.766652
vt 0.165671 0.766652
vt 0.165671 0.840082
vt 0.083656 0.840083
vt 0.083656 0.766652
vt 0.121596 0.766652
vt 0.121596 0.840083
vt 0.609499 0.563764
vt 0.559808 0.563764
vt 0.559808 0.323659
vt 0.609499 0.323659
vt 0.565615 0.290271
vt 0.603641 0.290271
vt 0.485045 0.563764
vt 0.435355 0.563764
vt 0.435355 0.323659
vt 0.485045 0.323659
vt 0.441161 0.290272
vt 0.479187 0.290272
vt 0.577569 0.725168
vt 0.425110 0.725168
vt 0.425110 0.567756
vt 0.577569 0.567756
vt 0.658354 0.731646
vt 0.584924 0.731646
vt 0.584924 0.574234
vt 0.658354 0.574234
vt 0.700364 0.731646
vt 0.700364 0.574234
vt 0.860166 0.731646
vt 0.707708 0.731646
vt 0.707708 0.574234
vt 0.860166 0.574234
vt 0.998008 0.892673
vt 0.924578 0.892673
vt 0.924578 0.735261
vt 0.998008 0.735261
vt 0.882888 0.892673
vt 0.882888 0.735261
vn -0.001658 -0.075836 -0.997119
vn -0.001658 -0.075921 -0.997112
vn 0.009293 0.196328 -0.980494
vn 0.009276 0.196020 -0.980556
vn 0.000000 1.000000 0.000000
vn 0.008633 0.994617 -0.103260
vn 0.011821 0.989884 -0.141383
vn 0.000000 1.000000 0.000000
vn 0.011607 0.989899 0.141302
vn 0.008481 0.994619 0.103252
vn 0.006795 0.196093 0.980562
vn 0.006840 0.196864 0.980407
vn 0.005190 -0.201110 0.979555
vn 0.005149 -0.200266 0.979728
vn 0.000002 -1.000000 -0.000000
vn -0.000088 -0.994838 -0.101473
vn -0.000088 -0.994838 -0.101473
vn 0.000002 -1.000000 -0.000000
vn 0.006307 -0.997030 0.076762
vn 0.008778 -0.994237 0.106845
vn -0.992445 0.068719 0.101636
vn -0.992446 0.068719 0.101636
vn -0.992445 0.068719 0.101636
vn -0.981307 -0.154407 -0.114872
vn -0.981307 -0.154407 -0.114872
vn -0.981307 -0.154407 -0.114872
vn 1.000000 0.000000 0.000000
vn 1.000000 0.000000 0.000000
vn 1.000000 0.000000 0.000000
vn 1.000000 0.000000 0.000000
vn 1.000000 0.000000 0.000000
vn 1.000000 0.000000 0.000000
vn -0.994856 -0.000282 0.101301
vn -0.994856 -0.000282 0.101301
vn -0.994856 -0.000282 0.101301
vn -0.994856 -0.000282 0.101301
vn -0.034836 0.999393 -0.000011
vn -0.034836 0.999393 -0.000011
vn -0.034836 0.999393 -0.000011
vn -0.034836 0.999393 -0.000011
vn -0.034836 0.999393 -0.000011
vn -0.034836 0.999393 -0.000011
vn -0.075249 0.000588 -0.997165
vn -0.075249 0.000588 -0.997165
vn -0.075249 0.000588 -0.997165
vn -0.075249 0.000588 -0.997165
vn -0.000002 -1.000000 0.000000
vn -0.000002 -1.000000 0.000000
vn -0.000002 -1.000000 0.000000
vn -0.000002 -1.000000 0.000000
vn -0.000002 -1.000000 0.000000
vn -0.000002 -1.000000 0.000000
vn 0.045780 -0.003797 0.998944
vn 0.045780 -0.003797 0.998944
vn 0.045780 -0.003797 0.998944
vn 0.045780 -0.003797 0.998944
vn -0.993936 0.000777 -0.109961
vn -0.993936 0.000777 -0.109961
vn -0.993936 0.000777 -0.109961
vn -0.993936 0.000777 -0.109961
vn 1.000000 0.000003 0.000000
vn 1.000000 0.000003 0.000000
vn 1.000000 0.000003 0.000000
vn 1.000000 0.000003 0.000000
vn 1.000000 0.000003 0.000000
vn 1.000000 0.000003 0.000000
vn 1.000000 -0.000000 0.000000
vn 1.000000 -0.000000 0.000000
vn 1.000000 -0.000000 0.000000
vn 1.000000 -0.000000 0.000000
vn 1.000000 -0.000000 0.000000
vn 1.000000 -0.000000 0.000000
vn -0.986323 -0.132241 0.098386
vn -0.986323 -0.132241 0.098386
vn -0.986323 -0.132241 0.098386
vn -0.995811 -0.091440 0.000265
vn -0.995811 -0.091440 0.000265
vn -0.995811 -0.091440 0.000265
vn -0.995811 -0.091440 0.000265
vn -0.995811 -0.091440 0.000265
vn -0.995811 -0.091440 0.000265
vn -0.994171 0.107814 -0.000324
vn -0.994171 0.107814 -0.000324
vn -0.994171 0.107814 -0.000324
vn -0.994171 0.107814 -0.000324
vn -0.994171 0.107814 -0.000324
vn -0.994171 0.107814 -0.000324
vn -0.982153 0.159805 -0.099189
vn -0.982153 0.159805 -0.099189
vn -0.982153 0.159805 -0.099189
vn -1.000000 -0.000001 0.000000
vn -1.000000 -0.000001 0.000000
vn -1.000000 -0.000001 0.000000
vn -1.000000 -0.000001 0.000000
vn -1.000000 -0.000002 0.000000
vn -1.000000 -0.000002 0.000000
vn -1.000000 -0.000002 0.000000
vn -1.000000 -0.000002 0.000000
vn -1.000000 -0.000002 0.000000
vn -1.000000 0.000000 0.000000
vn -1.000000 0.000000 0.000000
vn -1.000000 0.000000 0.000000
vn -1.000000 0.000000 0.000000
vn -1.000000 0.000000 0.000000
vn -1.000000 0.000000 0.000000
vn -1.000000 0.000000 0.000000
vn -1.000000 0.000000 0.000000
vn -1.000000 0.000000 0.000000
vn -1.000000 -0.000001 0.000000
vn -1.000000 -0.000001 0.000000
vn -1.000000 -0.000001 0.000000
vn -1.000000 -0.000001 0.000000
vn 0.000000 -0.999991 -0.004372
vn 0.000000 -0.999991 -0.004372
vn 0.000000 -0.999991 -0.004372
vn 0.000000 -0.999991 -0.004372
vn 0.000000 -0.004376 0.999990
vn 0.000000 -0.004376 0.999990
vn 0.000000 -0.004376 0.999990
vn 0.000000 -0.004376 0.999990
vn 0.000000 0.999991 0.004372
vn 0.000000 0.999991 0.004372
vn 0.000000 0.999991 0.004372
vn 0.000000 0.999991 0.004372
vn 0.000000 0.004367 -0.999990
vn 0.000000 0.004367 -0.999990
vn 0.000000 0.004367 -0.999990
vn 0.000000 0.004367 -0.999990
vn -1.000000 0.000004 0.000000
vn -1.000000 0.000004 0.000000
vn -1.000000 0.000004 0.000000
vn -1.000000 0.000004 0.000000
vn -1.000000 -0.000001 0.000000
vn -1.000000 -0.000001 0.000000
vn -1.000000 -0.000001 0.000000
vn -1.000000 -0.000001 0.000000
vn -1.000000 0.000001 0.000000
vn -1.000000 0.000001 0.000000
vn -1.000000 0.000001 0.000000
vn -1.000000 0.000001 0.000000
vn -1.000000 0.000000 0.000000
vn -1.000000 0.000000 0.000000
vn -1.000000 0.000000 0.000000
vn -1.000000 0.000000 0.000000
vn 0.000000 -0.999990 -0.004372
vn 0.000000 -0.999990 -0.004372
vn 0.000000 -0.999990 -0.004372
vn 0.000000 -0.999990 -0.004372
vn 0.000000 -0.004375 0.999991
vn 0.000000 -0.004375 0.999991
vn 0.000000 -0.004375 0.999991
vn 0.000000 -0.004375 0.999991
vn 0.000000 0.999991 0.004372
vn 0.000000 0.999991 0.004372
vn 0.000000 0.999991 0.004372
vn 0.000000 0.999991 0.004372
vn 0.000000 0.004361 -0.999991
vn 0.000000 0.004361 -0.999991
vn 0.000000 0.004361 -0.999991
vn 0.000000 0.004361 -0.999991
vn -0.711873 -0.702302 -0.003069
vn -0.711873 -0.702302 -0.003069
vn -0.711873 -0.702301 -0.003069
vn -0.711873 -0.702301 -0.003069
vn -0.711817 -0.003073 0.702359
vn -0.711817 -0.003073 0.702359
vn -0.711817 -0.003073 0.702359
vn -0.711817 -0.003073 0.702359
vn -0.711878 0.702296 0.003070
vn -0.711878 0.702296 0.003070
vn -0.711878 0.702296 0.003070
vn -0.711878 0.702296 0.003070
vn -0.711920 0.003068 -0.702254
vn -0.711920 0.003068 -0.702254
vn -0.711920 0.003068 -0.702254
vn -0.711920 0.003068 -0.702254
vn 0.000000 0.007580 0.999971
vn 0.000000 0.007580 0.999971
vn 0.000000 0.007580 0.999971
vn 0.000000 0.007580 0.999971
vn 0.000000 0.793780 -0.608205
vn 0.000000 0.793780 -0.608205
vn 0.000000 0.793780 -0.608205
vn 0.000000 0.793780 -0.608205
vn 0.000000 0.004376 -0.999991
vn 0.000000 0.004376 -0.999991
vn 0.000000 0.004376 -0.999991
vn 0.000000 0.004376 -0.999991
vn 0.000000 -0.835586 -0.549360
vn 0.000000 -0.835586 -0.549360
vn 0.000000 -0.835586 -0.549360
vn 0.000000 -0.835586 -0.549360
vn 0.000000 0.009741 -0.999953
vn 0.000000 0.009741 -0.999953
vn 0.000000 0.009741 -0.999953
vn 0.000000 0.009741 -0.999953
vn 0.000000 -0.832984 0.553296
vn 0.000000 -0.832984 0.553296
vn 0.000000 -0.832984 0.553296
vn 0.000000 -0.832984 0.553296
vn 0.000000 -0.004367 0.999990
vn 0.000000 -0.004367 0.999990
vn 0.000000 -0.004367 0.999990
vn 0.000000 -0.004367 0.999990
vn 0.000000 0.797197 0.603719
vn 0.000000 0.797197 0.603719
vn 0.000000 0.797197 0.603719
vn 0.000000 0.797197 0.603719
vn 0.000000 0.999991 0.004372
vn 0.000000 0.999991 0.004372
vn 0.000000 0.999991 0.004372
vn 0.000000 0.999991 0.004372
vn 0.000000 0.832986 -0.553295
vn 0.000000 0.832986 -0.553295
vn 0.000000 0.832986 -0.553295
vn 0.000000 0.832986 -0.553295
vn 0.000000 -1.000000 0.000000
vn 0.000000 -1.000000 0.000000
vn 0.000000 -1.000000 0.000000
vn 0.000000 -1.000000 0.000000
vn 0.000000 -1.000000 0.000000
vn 0.000000 -1.000000 0.000000
vn 0.000000 0.835586 0.549360
vn 0.000000 0.835586 0.549360
vn 0.000000 0.835586 0.549360
vn 0.000000 0.835586 0.549360
vn 0.000000 1.000000 -0.000000
vn 0.000000 1.000000 0.000000
vn 0.000000 1.000000 0.000000
vn 0.000000 1.000000 -0.000000
vn 0.000000 -0.797196 -0.603721
vn 0.000000 -0.797196 -0.603721
vn 0.000000 -0.797196 -0.603721
vn 0.000000 -0.797196 -0.603721
vn 0.000000 -0.999991 -0.004371
vn 0.000000 -0.999991 -0.004371
vn 0.000000 -0.999991 -0.004371
vn 0.000000 -0.999991 -0.004371
vn 0.000000 -0.793780 0.608205
vn 0.000000 -0.793780 0.608205
vn 0.000000 -0.793780 0.608205
vn 0.000000 -0.793780 0.608205
vn 0.000000 1.000000 -0.000001
vn 0.000000 1.000000 -0.000001
s 1
g LASER
usemtl lambert2SG
f 5/147/1 6/148/2 4/149/3 3/150/4
f 32/59/5 1/60/6 2/61/7 31/62/8 16/63/9 15/64/10
f 13/151/11 14/152/12 12/153/13 11/154/14
f 36/69/15 8/70/16 7/71/17 35/72/18 9/73/19 10/74/20
f 2/61/7 1/60/6 3/65/4 4/66/3
f 6/75/2 5/76/1 7/71/17 8/70/16
f 10/74/20 9/73/19 11/77/14 12/78/13
f 14/67/12 13/68/11 15/64/10 16/63/9
s off
f 6/1/21 8/2/22 22/3/23
f 14/12/24 16/16/25 24/13/26
f 35/17/27 7/18/28 5/19/29 34/20/30 11/21/31 9/22/32
f 6/1/33 22/3/34 23/8/35 4/9/36
f 38/79/37 18/80/38 22/81/39 37/82/40 21/83/41 17/84/42
f 17/155/43 21/156/44 24/157/45 19/158/46
f 30/85/47 23/86/48 20/87/49 29/88/50 19/89/51 24/90/52
f 20/159/53 23/160/54 22/161/55 18/162/56
f 21/7/57 12/10/58 14/12/59 24/13/60
f 33/24/61 3/23/62 1/26/63 32/27/64 15/28/65 13/25/66
f 34/20/67 5/19/68 3/23/69 33/24/70 13/25/71 11/21/72
f 23/8/73 2/11/74 4/9/75
f 31/14/76 2/11/77 23/8/78 30/15/79 24/13/80 16/16/81
f 37/4/82 22/3/83 8/2/84 36/5/85 10/6/86 21/7/87
f 21/7/88 10/6/89 12/10/90
f 52/29/91 51/30/92 53/31/93 54/32/94
f 63/33/95 64/34/96 65/35/97 66/36/98 67/37/99
f 56/38/100 55/39/101 57/40/102 58/41/103
f 69/42/104 68/43/105 70/44/106 71/45/107 72/46/108
f 60/47/109 59/48/110 61/49/111 62/50/112
f 26/91/113 25/92/114 39/93/115 40/94/116
f 25/163/117 27/164/118 41/165/119 39/166/120
f 27/95/121 28/96/122 42/97/123 41/98/124
f 28/167/125 26/168/126 40/169/127 42/170/128
f 40/51/129 39/52/130 43/53/131 44/54/132
f 39/52/133 41/55/134 45/56/135 43/53/136
f 41/55/137 42/57/138 46/58/139 45/56/140
f 42/57/141 40/51/142 44/54/143 46/58/144
f 44/99/145 43/100/146 47/101/147 48/102/148
f 43/171/149 45/172/150 49/173/151 47/174/152
f 45/105/153 46/106/154 50/107/155 49/108/156
f 46/177/157 44/178/158 48/179/159 50/180/160
f 48/102/161 47/101/162 51/103/163 52/104/164
f 47/174/165 49/173/166 53/175/167 51/176/168
f 49/108/169 50/107/170 54/109/171 53/110/172
f 50/180/173 48/179/174 52/181/175 54/182/176
f 17/183/177 19/184/178 55/185/179 56/186/180
f 19/191/181 27/187/182 57/190/183 55/192/184
f 27/187/185 25/188/186 58/189/187 57/190/188
f 25/111/189 17/112/190 56/113/191 58/114/192
f 20/193/193 18/194/194 59/195/195 60/196/196
f 18/115/197 26/116/198 61/117/199 59/118/200
f 26/197/201 28/198/202 62/199/203 61/200/204
f 28/198/205 20/201/206 60/202/207 62/199/208
f 25/119/209 26/120/210 64/121/211 63/122/212
f 26/120/213 18/123/214 65/124/215 64/121/216
s 2
f 18/127/217 38/128/218 66/129/219 65/130/220
f 38/128/218 17/131/221 67/132/222 66/129/219
s off
f 17/125/223 25/119/224 63/122/225 67/126/226
s 3
f 29/133/227 20/134/228 68/135/229 69/136/230
s off
f 20/145/231 28/139/232 70/142/233 68/146/234
f 28/139/235 27/140/236 71/141/237 70/142/238
f 27/140/239 19/143/240 72/144/241 71/141/242
s 3
f 19/137/243 29/133/227 69/136/230 72/138/244
