# This file uses meters as units for non-parametric coordinates.

mtllib Laser.mtl
g default
v 55.627541 95.173439 413.032320
v 33.950930 95.153245 409.385798
v 55.614406 84.610461 395.322941
v 33.940535 84.610719 395.377350
v 55.614541 15.522216 395.704802
v 33.940670 15.522473 395.759150
v 55.618958 6.825062 401.694147
v 33.945058 6.825108 401.710196
v 55.676594 7.255218 479.532476
v 34.005403 7.275415 483.205328
v 55.689772 16.083706 497.303473
v 34.015801 16.083221 497.223362
v 55.689637 85.171923 496.921673
v 34.015666 85.171438 496.841562
v 55.676421 95.538241 479.044600
v 34.005230 95.558495 482.717452
v 46.547842 16.636740 487.908664
v 46.485993 16.175147 404.381550
v 46.547323 85.117194 487.010958
v 46.486353 84.662099 404.670167
v 34.949542 16.235172 488.234906
v 34.941706 15.776999 405.326853
v 34.887904 84.662872 404.803814
v 34.991598 85.125130 488.451134
v 46.529082 33.125331 462.524775
v 46.504658 33.087242 429.539780
v 46.529124 66.110320 462.486689
v 46.504700 66.072231 429.501694
v 46.516060 84.883810 444.789691
v 34.930826 84.855798 439.714544
v 33.965400 95.261235 428.927089
v 55.653397 95.366404 447.950112
v 55.653175 84.899801 447.680098
v 55.651708 15.799594 445.897565
v 55.651522 7.068098 445.672376
v 33.977780 7.069262 445.901159
v 34.945595 16.003817 446.370394
v 46.516171 16.400374 445.137326
v 43.591995 33.125337 462.526950
v 43.567571 33.087248 429.541955
v 43.592037 66.110326 462.488864
v 43.567613 66.072237 429.503869
v 43.588054 38.451066 457.188876
v 43.571526 38.425295 434.867730
v 43.588083 60.772202 457.163089
v 43.571555 60.746431 434.841944
v 25.000369 38.451106 457.202639
v 24.983841 38.425335 434.881493
v 25.000398 60.772242 457.176853
v 24.983870 60.746471 434.855707
v 22.413770 41.067973 454.581623
v 22.401122 41.048226 437.500269
v 22.413792 58.149323 454.561905
v 22.401144 58.129615 437.480550
v 34.361318 85.117220 487.019981
v 34.361837 16.636766 487.917687
v 34.343118 66.110346 462.495712
v 34.343076 33.125357 462.533798
v 34.299987 16.175173 404.390574
v 34.300347 84.662125 404.679190
v 34.318652 33.087268 429.548804
v 34.318694 66.072257 429.510717
v 39.894807 33.125345 462.529688
v 39.870383 33.087256 429.544693
v 39.851718 16.175161 404.386463
v 39.881897 16.400388 445.142238
v 39.913567 16.636754 487.913576
v 39.852078 84.662113 404.675079
v 39.881786 84.883824 444.794603
v 39.870425 66.072245 429.506607
v 39.894849 66.110334 462.491601
v 39.913049 85.117208 487.015870
vt 0.797305 0.285903
vt 0.777870 0.269377
vt 0.797754 0.259111
vt 0.797754 0.144199
vt 0.777870 0.145653
vt 0.777870 0.041210
vt 0.797754 0.026989
vt 0.951111 0.259510
vt 0.951111 0.285903
vt 0.797305 0.001828
vt 0.974407 0.246521
vt 0.951111 0.001828
vt 0.951111 0.025317
vt 0.974407 0.191810
vt 0.951111 0.161768
vt 0.974407 0.041210
vt 0.288683 0.141590
vt 0.288683 0.018462
vt 0.308118 0.001829
vt 0.308118 0.142356
vt 0.308118 0.286280
vt 0.288683 0.236391
vt 0.461923 0.001828
vt 0.461923 0.148416
vt 0.461923 0.286280
vt 0.485220 0.051572
vt 0.485220 0.149334
vt 0.485220 0.236391
vt 0.039495 0.813997
vt 0.039329 0.766175
vt 0.077354 0.765966
vt 0.077521 0.813788
vt 0.116981 0.361083
vt 0.117302 0.453431
vt 0.079962 0.524127
vt 0.079962 0.410021
vt 0.079962 0.290272
vt 0.487889 0.763527
vt 0.486435 0.915986
vt 0.417481 0.873976
vt 0.417078 0.800546
vt 0.231297 0.647015
vt 0.231297 0.759340
vt 0.189607 0.690107
vt 0.189286 0.597759
vt 0.231297 0.528805
vt 0.341710 0.915986
vt 0.339842 0.763527
vt 0.410539 0.800867
vt 0.410942 0.874297
vt 0.260277 0.856279
vt 0.259956 0.763931
vt 0.271877 0.778794
vt 0.272095 0.841286
vt 0.333386 0.763527
vt 0.321568 0.778520
vt 0.333707 0.855875
vt 0.321785 0.841013
vt 0.001992 0.149334
vt 0.001992 0.051572
vt 0.281963 0.041318
vt 0.281963 0.096029
vt 0.281963 0.246629
vt 0.001992 0.236391
vt 0.001992 0.001828
vt 0.281963 0.001936
vt 0.281963 0.286011
vt 0.001992 0.286280
vt 0.771345 0.145922
vt 0.771345 0.269646
vt 0.491374 0.269646
vt 0.491374 0.146518
vt 0.491374 0.051718
vt 0.771345 0.041480
vt 0.771345 0.286173
vt 0.491374 0.286280
vt 0.491374 0.001828
vt 0.771345 0.002098
vt 0.279396 0.404378
vt 0.279396 0.290272
vt 0.428527 0.292888
vt 0.428870 0.407800
vt 0.429219 0.525010
vt 0.279396 0.524127
vt 0.273040 0.426722
vt 0.273261 0.524464
vt 0.123437 0.524814
vt 0.123437 0.412489
vt 0.123437 0.294280
vt 0.272721 0.290272
vt 0.171806 0.859000
vt 0.171806 0.766652
vt 0.209746 0.766652
vt 0.209746 0.859000
vt 0.215881 0.855875
vt 0.215881 0.763527
vt 0.253820 0.763527
vt 0.253820 0.855875
vt 0.678126 0.563764
vt 0.615634 0.563764
vt 0.615634 0.323659
vt 0.678126 0.323659
vt 0.622937 0.290271
vt 0.670759 0.290271
vt 0.553673 0.563764
vt 0.491180 0.563764
vt 0.491180 0.323659
vt 0.553673 0.323659
vt 0.498483 0.290271
vt 0.546306 0.290271
vt 0.876753 0.893050
vt 0.805942 0.893050
vt 0.805942 0.735638
vt 0.876753 0.735638
vt 0.938218 0.731270
vt 0.867522 0.731270
vt 0.867522 0.573858
vt 0.938218 0.573858
vt 0.001992 0.691163
vt 0.001992 0.598815
vt 0.087690 0.598815
vt 0.087690 0.691163
vt 0.001992 0.528118
vt 0.087690 0.528118
vt 0.001992 0.761974
vt 0.087690 0.761974
vt 0.095737 0.762661
vt 0.095737 0.648555
vt 0.181434 0.648555
vt 0.181434 0.762661
vt 0.095737 0.528805
vt 0.181434 0.528805
vt 0.238010 0.641327
vt 0.238010 0.529002
vt 0.323708 0.529002
vt 0.323708 0.641327
vt 0.238010 0.759536
vt 0.323708 0.759536
vt 0.331560 0.690303
vt 0.331560 0.597956
vt 0.417258 0.597956
vt 0.417258 0.690303
vt 0.331560 0.529002
vt 0.417258 0.529002
vt 0.331560 0.759536
vt 0.417258 0.759536
vt 0.844202 0.569866
vt 0.844202 0.289895
vt 0.998008 0.289895
vt 0.998008 0.569866
vt 0.684261 0.570243
vt 0.684261 0.290271
vt 0.838067 0.290271
vt 0.838067 0.570243
vt 0.649983 0.736536
vt 0.799807 0.735638
vt 0.799267 0.888994
vt 0.649983 0.888994
vt 0.494024 0.735638
vt 0.643848 0.735638
vt 0.643156 0.888995
vt 0.494024 0.888097
vt 0.127731 0.840082
vt 0.127731 0.766652
vt 0.165671 0.766652
vt 0.165671 0.840082
vt 0.083656 0.840083
vt 0.083656 0.766652
vt 0.121596 0.766652
vt 0.121596 0.840083
vt 0.609499 0.563764
vt 0.559808 0.563764
vt 0.559808 0.323659
vt 0.609499 0.323659
vt 0.565615 0.290271
vt 0.603641 0.290271
vt 0.485045 0.563764
vt 0.435355 0.563764
vt 0.435355 0.323659
vt 0.485045 0.323659
vt 0.441161 0.290272
vt 0.479187 0.290272
vt 0.577569 0.725168
vt 0.425110 0.725168
vt 0.425110 0.567756
vt 0.577569 0.567756
vt 0.658354 0.731646
vt 0.584924 0.731646
vt 0.584924 0.574234
vt 0.658354 0.574234
vt 0.700364 0.731646
vt 0.700364 0.574234
vt 0.860166 0.731646
vt 0.707708 0.731646
vt 0.707708 0.574234
vt 0.860166 0.574234
vt 0.998008 0.892673
vt 0.924578 0.892673
vt 0.924578 0.735261
vt 0.998008 0.735261
vt 0.882888 0.892673
vt 0.882888 0.735261
vn -0.002403 -0.081379 -0.996680
vn -0.002403 -0.081400 -0.996679
vn 0.008554 0.190793 -0.981593
vn 0.008550 0.190722 -0.981607
vn -0.000002 0.999985 -0.005526
vn 0.009702 0.992410 -0.122590
vn 0.010410 0.991311 -0.131129
vn -0.000002 0.999985 -0.005526
vn 0.010408 0.992707 0.120103
vn 0.009701 0.993709 0.111572
vn 0.007537 0.201817 0.979394
vn 0.007547 0.201994 0.979358
vn 0.005899 -0.195378 0.980710
vn 0.005890 -0.195186 0.980749
vn 0.000004 -0.999985 0.005526
vn -0.000161 -0.995384 -0.095974
vn -0.000161 -0.995384 -0.095974
vn 0.000004 -0.999985 0.005526
vn 0.007264 -0.995630 0.093100
vn 0.007819 -0.994978 0.099791
vn -0.992371 0.069281 0.101985
vn -0.992371 0.069281 0.101985
vn -0.992370 0.069281 0.101985
vn -0.981390 -0.155042 -0.113295
vn -0.981390 -0.155042 -0.113295
vn -0.981390 -0.155042 -0.113295
vn 1.000000 -0.000002 -0.000740
vn 1.000000 -0.000002 -0.000740
vn 1.000000 -0.000002 -0.000740
vn 1.000000 -0.000002 -0.000740
vn 1.000000 -0.000002 -0.000740
vn 1.000000 -0.000002 -0.000740
vn -0.994780 0.000280 0.102039
vn -0.994780 0.000280 0.102039
vn -0.994780 0.000280 0.102039
vn -0.994780 0.000280 0.102039
vn -0.034837 0.999378 -0.005508
vn -0.034837 0.999378 -0.005508
vn -0.034837 0.999378 -0.005508
vn -0.034837 0.999378 -0.005508
vn -0.034837 0.999378 -0.005508
vn -0.034837 0.999378 -0.005508
vn -0.075985 -0.004924 -0.997097
vn -0.075985 -0.004924 -0.997097
vn -0.075985 -0.004924 -0.997097
vn -0.075985 -0.004924 -0.997097
vn -0.000002 -0.999985 0.005527
vn -0.000002 -0.999985 0.005527
vn -0.000002 -0.999985 0.005527
vn -0.000002 -0.999985 0.005527
vn -0.000002 -0.999985 0.005527
vn -0.000002 -0.999985 0.005527
vn 0.046542 0.001723 0.998915
vn 0.046542 0.001723 0.998915
vn 0.046542 0.001723 0.998915
vn 0.046542 0.001723 0.998915
vn -0.994017 0.000171 -0.109226
vn -0.994017 0.000171 -0.109226
vn -0.994017 0.000171 -0.109226
vn -0.994017 0.000171 -0.109226
vn 1.000000 -0.000002 -0.000740
vn 1.000000 -0.000002 -0.000740
vn 1.000000 -0.000002 -0.000740
vn 1.000000 -0.000002 -0.000740
vn 1.000000 -0.000002 -0.000740
vn 1.000000 -0.000002 -0.000740
vn 1.000000 -0.000002 -0.000740
vn 1.000000 -0.000002 -0.000740
vn 1.000000 -0.000002 -0.000740
vn 1.000000 -0.000002 -0.000740
vn 1.000000 -0.000002 -0.000740
vn 1.000000 -0.000002 -0.000740
vn -0.986248 -0.131700 0.099847
vn -0.986248 -0.131700 0.099847
vn -0.986248 -0.131700 0.099847
vn -0.995810 -0.091435 0.001508
vn -0.995810 -0.091435 0.001508
vn -0.995810 -0.091435 0.001508
vn -0.995810 -0.091435 0.001508
vn -0.995810 -0.091435 0.001508
vn -0.995810 -0.091435 0.001508
vn -0.994171 0.107811 -0.000183
vn -0.994172 0.107811 -0.000183
vn -0.994171 0.107811 -0.000183
vn -0.994171 0.107811 -0.000183
vn -0.994171 0.107811 -0.000183
vn -0.994172 0.107811 -0.000183
vn -0.982224 0.159269 -0.099343
vn -0.982224 0.159269 -0.099343
vn -0.982224 0.159269 -0.099343
vn -1.000000 0.000002 0.000740
vn -1.000000 0.000002 0.000740
vn -1.000000 0.000002 0.000740
vn -1.000000 0.000002 0.000740
vn -1.000000 0.000002 0.000740
vn -1.000000 0.000002 0.000740
vn -1.000000 0.000002 0.000740
vn -1.000000 0.000002 0.000740
vn -1.000000 0.000002 0.000740
vn -1.000000 0.000002 0.000740
vn -1.000000 0.000002 0.000740
vn -1.000000 0.000002 0.000740
vn -1.000000 0.000002 0.000740
vn -1.000000 0.000002 0.000740
vn -1.000000 0.000002 0.000740
vn -1.000000 0.000002 0.000740
vn -1.000000 0.000002 0.000740
vn -1.000000 0.000002 0.000740
vn -1.000000 0.000002 0.000740
vn -1.000000 0.000002 0.000740
vn -1.000000 0.000002 0.000740
vn -1.000000 0.000002 0.000740
vn -0.000001 -0.999999 0.001155
vn -0.000001 -0.999999 0.001155
vn -0.000001 -0.999999 0.001155
vn -0.000001 -0.999999 0.001155
vn 0.000740 0.001155 0.999999
vn 0.000740 0.001155 0.999999
vn 0.000740 0.001155 0.999999
vn 0.000740 0.001155 0.999999
vn 0.000001 0.999999 -0.001155
vn 0.000001 0.999999 -0.001155
vn 0.000001 0.999999 -0.001155
vn 0.000001 0.999999 -0.001155
vn -0.000740 -0.001155 -0.999999
vn -0.000740 -0.001155 -0.999999
vn -0.000740 -0.001155 -0.999999
vn -0.000740 -0.001155 -0.999999
vn -1.000000 0.000002 0.000740
vn -1.000000 0.000002 0.000740
vn -1.000000 0.000002 0.000740
vn -1.000000 0.000002 0.000740
vn -1.000000 0.000002 0.000740
vn -1.000000 0.000002 0.000740
vn -1.000000 0.000002 0.000740
vn -1.000000 0.000002 0.000740
vn -1.000000 0.000002 0.000740
vn -1.000000 0.000002 0.000740
vn -1.000000 0.000002 0.000740
vn -1.000000 0.000002 0.000740
vn -1.000000 0.000002 0.000740
vn -1.000000 0.000002 0.000740
vn -1.000000 0.000002 0.000740
vn -1.000000 0.000002 0.000740
vn -0.000001 -0.999999 0.001155
vn -0.000001 -0.999999 0.001155
vn -0.000001 -0.999999 0.001155
vn -0.000001 -0.999999 0.001155
vn 0.000740 0.001155 0.999999
vn 0.000740 0.001155 0.999999
vn 0.000740 0.001155 0.999999
vn 0.000740 0.001155 0.999999
vn 0.000001 0.999999 -0.001155
vn 0.000001 0.999999 -0.001155
vn 0.000001 0.999999 -0.001155
vn 0.000001 0.999999 -0.001155
vn -0.000740 -0.001155 -0.999999
vn -0.000740 -0.001155 -0.999999
vn -0.000740 -0.001155 -0.999999
vn -0.000740 -0.001155 -0.999999
vn -0.711875 -0.702304 0.001338
vn -0.711875 -0.702305 0.001338
vn -0.711875 -0.702304 0.001338
vn -0.711875 -0.702304 0.001338
vn -0.711357 0.000813 0.702830
vn -0.711358 0.000813 0.702830
vn -0.711358 0.000813 0.702830
vn -0.711357 0.000813 0.702830
vn -0.711876 0.702305 -0.000283
vn -0.711876 0.702305 -0.000283
vn -0.711876 0.702305 -0.000283
vn -0.711876 0.702305 -0.000283
vn -0.712397 -0.000810 -0.701776
vn -0.712397 -0.000810 -0.701776
vn -0.712397 -0.000810 -0.701776
vn -0.712397 -0.000810 -0.701776
vn 0.000740 0.013108 0.999914
vn 0.000740 0.013108 0.999914
vn 0.000740 0.013108 0.999914
vn 0.000740 0.013108 0.999914
vn -0.000452 0.790406 -0.612583
vn -0.000452 0.790406 -0.612583
vn -0.000452 0.790406 -0.612583
vn -0.000452 0.790406 -0.612583
vn -0.000740 -0.001155 -0.999999
vn -0.000740 -0.001155 -0.999999
vn -0.000740 -0.001155 -0.999999
vn -0.000740 -0.001155 -0.999999
vn -0.000405 -0.838609 -0.544734
vn -0.000405 -0.838609 -0.544734
vn -0.000405 -0.838609 -0.544734
vn -0.000405 -0.838609 -0.544734
vn -0.000740 0.004214 -0.999991
vn -0.000740 0.004214 -0.999991
vn -0.000740 0.004214 -0.999991
vn -0.000740 0.004214 -0.999991
vn 0.000411 -0.829914 0.557892
vn 0.000411 -0.829914 0.557892
vn 0.000411 -0.829914 0.557892
vn 0.000411 -0.829914 0.557892
vn 0.000740 0.001155 0.999999
vn 0.000740 0.001155 0.999999
vn 0.000740 0.001155 0.999999
vn 0.000740 0.001155 0.999999
vn 0.000445 0.800522 0.599303
vn 0.000445 0.800522 0.599303
vn 0.000445 0.800522 0.599303
vn 0.000445 0.800522 0.599303
vn 0.000001 0.999999 -0.001155
vn 0.000001 0.999999 -0.001155
vn 0.000001 0.999999 -0.001155
vn 0.000001 0.999999 -0.001155
vn -0.000411 0.829914 -0.557892
vn -0.000411 0.829914 -0.557892
vn -0.000411 0.829914 -0.557892
vn -0.000411 0.829914 -0.557892
vn 0.000002 -0.999985 0.005526
vn 0.000002 -0.999985 0.005526
vn 0.000002 -0.999985 0.005526
vn 0.000002 -0.999985 0.005526
vn 0.000002 -0.999985 0.005526
vn 0.000002 -0.999985 0.005526
vn 0.000405 0.838609 0.544734
vn 0.000405 0.838609 0.544734
vn 0.000405 0.838609 0.544734
vn 0.000405 0.838609 0.544734
vn -0.000002 0.999985 -0.005527
vn -0.000002 0.999985 -0.005526
vn -0.000002 0.999985 -0.005526
vn -0.000002 0.999985 -0.005527
vn -0.000445 -0.800522 -0.599303
vn -0.000445 -0.800522 -0.599303
vn -0.000445 -0.800522 -0.599303
vn -0.000445 -0.800522 -0.599303
vn -0.000001 -0.999999 0.001155
vn -0.000001 -0.999999 0.001155
vn -0.000001 -0.999999 0.001155
vn -0.000001 -0.999999 0.001155
vn 0.000452 -0.790406 0.612583
vn 0.000452 -0.790406 0.612583
vn 0.000452 -0.790406 0.612583
vn 0.000452 -0.790406 0.612583
vn -0.000002 0.999985 -0.005528
vn -0.000002 0.999985 -0.005528
s 1
g LASER
usemtl lambert2SG
f 5/147/1 6/148/2 4/149/3 3/150/4
f 32/59/5 1/60/6 2/61/7 31/62/8 16/63/9 15/64/10
f 13/151/11 14/152/12 12/153/13 11/154/14
f 36/69/15 8/70/16 7/71/17 35/72/18 9/73/19 10/74/20
f 2/61/7 1/60/6 3/65/4 4/66/3
f 6/75/2 5/76/1 7/71/17 8/70/16
f 10/74/20 9/73/19 11/77/14 12/78/13
f 14/67/12 13/68/11 15/64/10 16/63/9
s off
f 6/1/21 8/2/22 22/3/23
f 14/12/24 16/16/25 24/13/26
f 35/17/27 7/18/28 5/19/29 34/20/30 11/21/31 9/22/32
f 6/1/33 22/3/34 23/8/35 4/9/36
f 38/79/37 18/80/38 22/81/39 37/82/40 21/83/41 17/84/42
f 17/155/43 21/156/44 24/157/45 19/158/46
f 30/85/47 23/86/48 20/87/49 29/88/50 19/89/51 24/90/52
f 20/159/53 23/160/54 22/161/55 18/162/56
f 21/7/57 12/10/58 14/12/59 24/13/60
f 33/24/61 3/23/62 1/26/63 32/27/64 15/28/65 13/25/66
f 34/20/67 5/19/68 3/23/69 33/24/70 13/25/71 11/21/72
f 23/8/73 2/11/74 4/9/75
f 31/14/76 2/11/77 23/8/78 30/15/79 24/13/80 16/16/81
f 37/4/82 22/3/83 8/2/84 36/5/85 10/6/86 21/7/87
f 21/7/88 10/6/89 12/10/90
f 52/29/91 51/30/92 53/31/93 54/32/94
f 63/33/95 64/34/96 65/35/97 66/36/98 67/37/99
f 56/38/100 55/39/101 57/40/102 58/41/103
f 69/42/104 68/43/105 70/44/106 71/45/107 72/46/108
f 60/47/109 59/48/110 61/49/111 62/50/112
f 26/91/113 25/92/114 39/93/115 40/94/116
f 25/163/117 27/164/118 41/165/119 39/166/120
f 27/95/121 28/96/122 42/97/123 41/98/124
f 28/167/125 26/168/126 40/169/127 42/170/128
f 40/51/129 39/52/130 43/53/131 44/54/132
f 39/52/133 41/55/134 45/56/135 43/53/136
f 41/55/137 42/57/138 46/58/139 45/56/140
f 42/57/141 40/51/142 44/54/143 46/58/144
f 44/99/145 43/100/146 47/101/147 48/102/148
f 43/171/149 45/172/150 49/173/151 47/174/152
f 45/105/153 46/106/154 50/107/155 49/108/156
f 46/177/157 44/178/158 48/179/159 50/180/160
f 48/102/161 47/101/162 51/103/163 52/104/164
f 47/174/165 49/173/166 53/175/167 51/176/168
f 49/108/169 50/107/170 54/109/171 53/110/172
f 50/180/173 48/179/174 52/181/175 54/182/176
f 17/183/177 19/184/178 55/185/179 56/186/180
f 19/191/181 27/187/182 57/190/183 55/192/184
f 27/187/185 25/188/186 58/189/187 57/190/188
f 25/111/189 17/112/190 56/113/191 58/114/192
f 20/193/193 18/194/194 59/195/195 60/196/196
f 18/115/197 26/116/198 61/117/199 59/118/200
f 26/197/201 28/198/202 62/199/203 61/200/204
f 28/198/205 20/201/206 60/202/207 62/199/208
f 25/119/209 26/120/210 64/121/211 63/122/212
f 26/120/213 18/123/214 65/124/215 64/121/216
s 2
f 18/127/217 38/128/218 66/129/219 65/130/220
f 38/128/218 17/131/221 67/132/222 66/129/219
s off
f 17/125/223 25/119/224 63/122/225 67/126/226
s 3
f 29/133/227 20/134/228 68/135/229 69/136/230
s off
f 20/145/231 28/139/232 70/142/233 68/146/234
f 28/139/235 27/140/236 71/141/237 70/142/238
f 27/140/239 19/143/240 72/144/241 71/141/242
s 3
f 19/137/243 29/133/227 69/136/230 72/138/244
