# This file uses centimeters as units for non-parametric coordinates.

mtllib Woodcrate.mtl
g default
v 0.423410 0.109496 -0.500000
v 0.423410 0.929260 -0.500000
v 0.429564 0.929163 0.500000
v 0.429564 0.109593 0.500000
v -0.433410 0.109496 -0.500000
v -0.433410 0.929260 -0.500000
v -0.439564 0.929163 0.500000
v -0.439564 0.109593 0.500000
v 0.500000 0.929344 -0.427092
v 0.500000 0.109412 -0.427092
v -0.500000 0.112309 -0.423980
v -0.500000 0.926448 -0.423980
v 0.500000 0.929344 0.437092
v 0.500000 0.109412 0.437092
v -0.500000 0.112309 0.433980
v -0.500000 0.926448 0.433980
v 0.429429 1.036727 0.536786
v 0.429429 0.936983 0.536786
v 0.536786 0.936983 0.536786
v 0.536786 1.036727 0.536786
v 0.429429 1.036727 -0.536786
v 0.429429 1.036727 -0.429429
v 0.536786 1.036727 -0.429429
v 0.536786 1.036727 -0.536786
v 0.429429 0.936983 -0.536786
v 0.536786 0.936983 -0.536786
v 0.536786 -0.036845 -0.429429
v 0.429429 -0.036845 -0.429429
v 0.429429 -0.036845 -0.536786
v 0.536786 -0.036845 -0.536786
v 0.536786 0.936983 -0.429429
v -0.536786 0.936983 -0.536786
v -0.536786 0.936983 -0.429429
v -0.536786 1.036727 -0.429429
v -0.536786 1.036727 -0.536786
v 0.429429 0.105842 0.536786
v 0.536786 0.105842 0.536786
v 0.536786 0.105842 -0.429429
v 0.536786 0.105842 -0.536786
v 0.429429 0.105842 -0.536786
v -0.536786 0.105842 -0.536786
v -0.536786 0.105842 -0.429429
v 0.429429 -0.036845 0.536786
v 0.536786 -0.036845 0.536786
v -0.536786 -0.036845 -0.536786
v -0.536786 -0.036845 -0.429429
v -0.440164 -0.036845 -0.429429
v -0.440164 -0.036845 -0.536786
v -0.440164 0.105842 -0.536786
v -0.440164 0.936983 -0.536786
v -0.440164 1.036727 -0.536786
v -0.440164 1.036727 -0.429429
v -0.440164 1.036727 0.536786
v -0.440164 0.936983 0.536786
v -0.440164 0.105842 0.536786
v -0.440164 -0.036845 0.536786
v -0.536786 0.936983 0.536786
v -0.536786 1.036727 0.536786
v -0.536786 0.105842 0.536786
v -0.536786 -0.036845 0.536786
v -0.536786 1.036727 0.440164
v -0.440164 1.036727 0.440164
v 0.429429 1.036727 0.440164
v 0.536786 1.036727 0.440164
v 0.536786 0.936983 0.440164
v 0.536786 0.105842 0.440164
v 0.536786 -0.036845 0.440164
v 0.429429 -0.036845 0.440164
v -0.440164 -0.036845 0.440164
v -0.536786 -0.036845 0.440164
v -0.536786 0.105842 0.440164
v -0.536786 0.936983 0.440164
vt 0.377301 0.663019
vt 0.403201 0.661179
vt 0.366614 0.662602
vt 0.387186 0.654910
vt 0.665198 0.663589
vt 0.652170 0.654910
vt 0.651050 0.381036
vt 0.400810 0.482682
vt 0.377301 0.399030
vt 0.417333 0.632641
vt 0.651921 0.630038
vt 0.471709 0.523546
vt 0.377301 0.625439
vt 0.418431 0.408855
vt 0.651921 0.412477
vt 0.650920 0.415235
vt 0.402745 0.634222
vt 0.634006 0.633185
vt 0.383638 0.480074
vt 0.691033 0.548536
vt 0.616545 0.383056
vt 0.411933 0.649121
vt 0.416343 0.459851
vt 0.702841 0.548110
vt 0.393664 0.425396
vt 0.644055 0.424549
vt 0.382373 0.571446
vt 0.417082 0.582854
vt 0.497203 0.537789
vt 0.383070 0.637112
vt 0.538623 0.628154
vt 0.642042 0.573317
vt 0.631251 0.392603
vt 0.408035 0.652360
vt 0.625854 0.625199
vt 0.625854 0.423851
vt 0.624337 0.380775
vt 0.611360 0.633185
vt 0.619305 0.424549
vt 0.619305 0.402341
vt 0.632245 0.618573
vt 0.632245 0.407206
vt 0.402180 0.393886
vt 0.383607 0.623636
vt 0.415187 0.625200
vt 0.415187 0.423851
vt 0.406771 0.380584
vt 0.427181 0.633185
vt 0.418010 0.424549
vt 0.418010 0.402341
vt 0.410071 0.618573
vt 0.410071 0.407206
vt 0.639589 0.618461
vt 0.693429 0.548810
vt 0.625011 0.630038
vt 0.625011 0.412477
vt 0.387120 0.482681
vt 0.681960 0.587715
vt 0.628245 0.619139
vt 0.632402 0.418853
vt 0.627762 0.415146
vt 0.417082 0.633352
vt 0.621707 0.600555
vt 0.406420 0.598610
vt 0.405326 0.623788
vt 0.645051 0.563953
vt 0.408557 0.625763
vt 0.408599 0.407708
vt 0.407029 0.630038
vt 0.407029 0.412477
vt 0.402837 0.625439
vt 0.403330 0.420135
vt 0.383611 0.649126
vt 0.406152 0.654910
vt 0.378903 0.650937
vt 0.391912 0.651252
vt 0.625011 0.654910
vt 0.621313 0.652996
vt 0.410177 0.644738
vt 0.676031 0.375951
vt 0.665202 0.653944
vt 0.367126 0.654910
vt 0.613162 0.640282
vt 0.660841 0.647266
vt 0.579775 0.603872
vt 0.578130 0.621103
vt 0.639585 0.644774
vt 0.383109 0.407704
vt 0.585037 0.430517
vt 0.621555 0.380795
vt 0.625313 0.621604
vt 0.411682 0.425255
vt 0.471731 0.537785
vt 0.665238 0.444042
vt 0.402837 0.663019
vt 0.379100 0.380444
vt 0.377301 0.372755
vt 0.628245 0.656718
vt 0.379216 0.420014
vt 0.378937 0.623756
vt 0.656486 0.619139
vt 0.656486 0.656719
vt 0.659986 0.407859
vt 0.471713 0.497154
vt 0.644055 0.402341
vt 0.400810 0.571446
vt 0.400810 0.482681
vt 0.397966 0.482681
vt 0.636375 0.660241
vt 0.498022 0.468812
vt 0.471709 0.468832
vt 0.392427 0.414101
vt 0.650158 0.614440
vt 0.498044 0.537764
vt 0.621835 0.414101
vt 0.652170 0.630038
vt 0.397966 0.398754
vt 0.387120 0.571446
vt 0.497198 0.564102
vt 0.627000 0.614352
vt 0.406642 0.383056
vt 0.627892 0.380948
vt 0.631602 0.638016
vt 0.706632 0.769420
vt 0.696716 0.811833
vt 0.617829 0.408780
vt 0.634846 0.582854
vt 0.634846 0.592721
vt 0.411237 0.399082
vt 0.382373 0.482681
vt 0.405813 0.627417
vt 0.383638 0.398754
vt 0.387120 0.439384
vt 0.392429 0.394123
vt 0.718500 0.769396
vt 0.392323 0.627882
vt 0.428902 0.528553
vt 0.640323 0.394235
vt 0.629481 0.415082
vt 0.640217 0.627994
vt 0.538656 0.398869
vt 0.380404 0.633660
vt 0.410181 0.618424
vt 0.548545 0.628314
vt 0.428902 0.518848
vt 0.709096 0.770215
vt 0.388379 0.407129
vt 0.405605 0.419978
vt 0.632490 0.424445
vt 0.376296 0.410847
vt 0.627112 0.407833
vt 0.416343 0.469556
vt 0.548577 0.398906
vt 0.405293 0.650970
vt 0.427033 0.660313
vt 0.385686 0.381475
vt 0.611615 0.660266
vt 0.393434 0.401692
vt 0.405819 0.380476
vt 0.386132 0.382093
vt 0.629506 0.382811
vt 0.363352 0.382491
vt 0.649456 0.380709
vt 0.411929 0.623631
vt 0.579239 0.648613
vt 0.406926 0.624850
vt 0.654558 0.625888
vn 0.000000 0.000000 1.000000
vn 0.000000 0.000000 1.000000
vn 0.000000 0.000000 1.000000
vn 0.000000 0.000000 1.000000
vn 0.000000 1.000000 0.000000
vn 0.000000 1.000000 0.000000
vn 0.000000 1.000000 0.000000
vn 0.000000 1.000000 0.000000
vn 0.000000 -0.000000 -1.000000
vn -0.000000 -0.000000 -1.000000
vn 0.000001 0.000000 -1.000000
vn 0.000001 0.000000 -1.000000
vn 0.000000 -1.000000 0.000000
vn 0.000000 -1.000000 0.000000
vn 0.000000 -1.000000 0.000000
vn 0.000000 -1.000000 0.000000
vn 1.000000 0.000001 0.000000
vn 1.000000 0.000000 -0.000000
vn 1.000000 0.000000 -0.000001
vn 1.000000 0.000000 -0.000000
vn -1.000000 0.000000 0.000000
vn -1.000000 0.000000 0.000000
vn -1.000000 0.000000 0.000000
vn -1.000000 0.000000 0.000000
vn 0.000000 0.000000 1.000000
vn 0.000000 0.000000 1.000000
vn 1.000000 0.000000 -0.000000
vn 1.000000 0.000000 -0.000001
vn 0.000000 0.000000 -1.000000
vn 0.000001 0.000000 -1.000000
vn -1.000000 0.000000 0.000000
vn -1.000000 0.000000 0.000000
vn 0.000000 0.000000 1.000000
vn 0.000000 0.000000 1.000000
vn 1.000000 0.000000 -0.000000
vn 1.000000 0.000000 -0.000001
vn 0.000000 0.000000 -1.000000
vn 0.000000 0.000000 -1.000000
vn -1.000000 0.000000 0.000000
vn -1.000000 0.000000 0.000000
vn 0.000000 -1.000000 0.000000
vn 0.000000 -1.000000 0.000000
vn -0.000000 0.000000 -1.000000
vn -0.000000 0.000000 -1.000000
vn 0.000000 0.000000 -1.000000
vn 0.000000 0.000000 -1.000000
vn 0.000000 0.000000 -1.000000
vn 0.000000 0.000000 -1.000000
vn -0.000000 -0.000000 -1.000000
vn -0.000000 -0.000000 -1.000000
vn 0.000000 1.000000 0.000000
vn 0.000000 1.000000 0.000000
vn 0.000000 0.000000 1.000000
vn 0.000000 0.000000 1.000000
vn 0.000000 0.000000 1.000000
vn 0.000000 0.000000 1.000000
vn 0.000000 0.000000 1.000000
vn 0.000000 0.000000 1.000000
vn -0.000000 0.000000 1.000000
vn -0.000000 0.000000 1.000000
vn 0.000000 -1.000000 0.000000
vn 0.000000 -1.000000 0.000000
vn 0.000000 0.000000 -1.000000
vn 0.000000 0.000000 -1.000000
vn 0.000000 0.000000 -1.000000
vn 0.000000 0.000000 -1.000000
vn 0.000000 1.000000 0.000000
vn 0.000000 1.000000 0.000000
vn 0.000000 0.000000 1.000000
vn 0.000000 0.000000 1.000000
vn 0.000000 0.000000 1.000000
vn 0.000000 0.000000 1.000000
vn 0.000000 1.000000 -0.000000
vn 0.000000 1.000000 -0.000000
vn 0.000000 1.000000 -0.000000
vn 0.000000 1.000000 -0.000000
vn 1.000000 0.000001 -0.000000
vn 1.000000 0.000000 -0.000000
vn 1.000000 0.000000 0.000000
vn 1.000000 0.000000 0.000000
vn 1.000000 0.000000 0.000000
vn 1.000000 0.000000 0.000000
vn 1.000000 0.000000 -0.000000
vn 1.000000 0.000000 0.000000
vn 0.000000 -1.000000 0.000000
vn 0.000000 -1.000000 -0.000000
vn 0.000000 -1.000000 -0.000000
vn 0.000000 -1.000000 -0.000000
vn -1.000000 0.000000 0.000000
vn -1.000000 0.000000 0.000000
vn -1.000000 0.000000 0.000000
vn -1.000000 0.000000 0.000000
vn -1.000000 0.000000 0.000000
vn -1.000000 0.000000 0.000000
vn -1.000000 0.000000 0.000000
vn -1.000000 0.000000 0.000000
vn 0.000000 1.000000 -0.000000
vn 0.000000 1.000000 -0.000000
vn 0.000000 1.000000 -0.000000
vn 0.000000 1.000000 -0.000000
vn 1.000000 0.000000 -0.000001
vn 1.000000 0.000000 -0.000001
vn 1.000000 0.000000 -0.000001
vn 1.000000 0.000000 -0.000000
vn 0.000000 -1.000000 -0.000000
vn 0.000000 -1.000000 0.000000
vn 0.000000 -1.000000 -0.000000
vn 0.000000 -1.000000 -0.000000
vn -1.000000 0.000000 0.000001
vn -1.000000 0.000000 0.000001
vn -1.000000 0.000000 0.000001
vn -1.000000 0.000000 0.000001
vn -0.999993 0.000000 -0.003689
vn -0.999993 0.000000 -0.003689
vn -0.999993 0.000000 -0.003689
vn -0.999993 0.000000 -0.003689
vn 0.063401 0.000000 0.997988
vn 0.063401 0.000000 0.997988
vn 0.063401 0.000000 0.997988
vn 0.063401 0.000000 0.997988
vn -0.986877 0.000000 -0.161475
vn -0.986877 0.000000 -0.161475
vn -0.986877 0.000000 -0.161475
vn -0.986877 0.000000 -0.161475
vn -0.146528 0.000000 0.989206
vn -0.146528 0.000000 0.989206
vn -0.146528 0.000000 0.989206
vn -0.146528 0.000000 0.989207
vn 0.000000 0.995103 -0.098843
vn 0.000000 0.995103 -0.098843
vn 0.000000 0.995103 -0.098843
vn 0.000000 0.995103 -0.098843
vn 0.000000 -0.978668 -0.205449
vn 0.000000 -0.978668 -0.205449
vn 0.000000 -0.978668 -0.205449
vn 0.000000 -0.978668 -0.205449
vn 0.000000 -0.978146 0.207921
vn 0.000000 -0.978146 0.207921
vn 0.000000 -0.978146 0.207921
vn 0.000000 -0.978146 0.207921
vn 0.000000 0.994841 0.101445
vn 0.000000 0.994841 0.101445
vn 0.000000 0.994841 0.101445
vn 0.000000 0.994841 0.101445
vn 0.983556 0.000000 -0.180603
vn 0.983556 0.000000 -0.180603
vn 0.983556 0.000000 -0.180603
vn 0.983556 0.000000 -0.180603
vn 0.999867 0.000000 0.016308
vn 0.999867 0.000000 0.016308
vn 0.999867 0.000000 0.016308
vn 0.999867 0.000000 0.016308
vn 0.203307 -0.979115 0.000000
vn 0.203307 -0.979115 0.000000
vn 0.203307 -0.979115 0.000000
vn 0.203307 -0.979115 0.000000
vn 0.096592 0.995324 0.000000
vn 0.096592 0.995324 0.000000
vn 0.096592 0.995324 0.000000
vn 0.096592 0.995324 0.000000
vn -0.173123 0.984900 0.000000
vn -0.173123 0.984900 0.000000
vn -0.173123 0.984900 0.000000
vn -0.173123 0.984900 0.000000
vn -0.275307 -0.961356 0.000000
vn -0.275307 -0.961356 0.000000
vn -0.275307 -0.961356 0.000000
vn -0.275307 -0.961356 0.000000
vn 0.083240 0.000000 -0.996530
vn 0.083240 0.000000 -0.996530
vn 0.083240 0.000000 -0.996530
vn 0.083240 0.000000 -0.996530
vn -0.165799 0.000000 -0.986160
vn -0.165799 0.000000 -0.986160
vn -0.165799 0.000000 -0.986160
vn -0.165799 0.000000 -0.986160
vn 0.000000 1.000000 0.000000
vn 0.000000 1.000000 0.000000
vn 0.000000 1.000000 0.000000
vn 0.000000 1.000000 0.000000
s 1
g Woodcrate
usemtl lambert3SG
f 17/82/1 18/142/2 19/10/3 20/4/4
s 2
f 21/83/5 22/91/6 23/167/7 24/84/8
s 3
f 25/114/9 21/93/10 24/111/11 26/110/12
s 4
f 27/157/13 28/38/14 29/18/15 30/109/16
s 5
f 23/77/17 31/55/18 26/116/19 24/6/20
s 6
f 32/103/21 33/60/22 34/33/23 35/80/24
s 1
f 18/142/2 36/150/25 37/14/26 19/10/3
s 5
f 31/55/18 38/56/27 39/15/28 26/11/19
s 3
f 40/57/29 25/133/9 26/117/12 39/108/30
s 6
f 41/101/31 42/59/32 33/60/22 32/103/21
s 1
f 36/150/25 43/162/33 44/156/34 37/14/26
s 5
f 38/56/27 27/37/35 30/163/36 39/15/28
s 3
f 29/107/37 40/57/29 39/108/30 30/8/38
s 6
f 45/102/39 46/98/40 42/59/32 41/101/31
s 4
f 28/38/14 47/39/41 48/26/42 29/18/15
s 3
f 48/106/43 49/118/44 40/57/29 29/107/37
s off
f 5/126/45 6/123/46 2/131/47 1/129/48
s 3
f 50/112/49 51/121/50 21/21/10 25/115/9
s 2
f 51/81/51 52/63/52 22/90/6 21/94/5
s 1
f 53/79/53 54/143/54 18/53/2 17/87/1
s off
f 7/136/55 8/134/56 4/138/57 3/140/58
s 1
f 55/147/59 56/160/60 43/161/33 36/151/25
s 4
f 45/105/61 48/26/42 47/39/41 46/40/62
s 3
f 41/16/63 49/61/44 48/122/43 45/7/64
f 32/113/65 50/120/49 49/61/44 41/16/63
f 35/104/66 51/29/50 50/119/49 32/12/65
s 2
f 34/78/67 52/63/52 51/81/51 35/5/68
s 1
f 57/100/69 54/65/54 53/154/53 58/75/70
f 59/99/71 55/148/59 54/65/54 57/100/69
f 60/96/72 56/159/60 55/148/59 59/99/71
s 2
f 61/76/73 62/67/74 52/63/52 34/78/67
f 23/34/7 22/166/6 63/86/75 64/165/76
s 5
f 64/74/77 65/69/78 31/55/18 23/77/17
s off
f 13/45/79 14/46/80 10/36/81 9/35/82
s 5
f 66/70/83 67/47/84 27/37/35 38/56/27
s 4
f 67/155/85 68/48/86 28/38/14 27/157/13
f 68/48/86 69/49/87 47/39/41 28/38/14
f 46/40/62 47/39/41 69/49/87 70/50/88
s 6
f 42/59/32 46/98/40 70/95/89 71/71/90
s off
f 12/42/91 11/41/92 15/51/93 16/52/94
s 6
f 34/33/23 33/60/22 72/72/95 61/43/96
s 2
f 58/3/97 53/30/98 62/67/74 61/76/73
f 63/68/75 62/67/74 53/30/98 17/88/99
f 64/44/76 63/164/75 17/22/99 20/73/100
s 5
f 19/10/101 65/69/78 64/74/77 20/4/102
f 37/14/103 66/70/83 65/69/78 19/10/101
f 44/156/104 67/47/84 66/70/83 37/14/103
s 4
f 43/17/105 68/48/86 67/155/85 44/2/106
f 56/25/107 69/49/87 68/48/86 43/17/105
f 70/50/88 69/49/87 56/25/107 60/158/108
s 6
f 71/71/90 70/95/89 60/1/109 59/13/110
f 72/72/95 71/71/90 59/13/110 57/9/111
f 61/43/96 72/72/95 57/9/111 58/97/112
s off
f 3/23/113 4/139/114 36/149/115 18/152/116
f 9/35/117 10/36/118 38/56/119 31/55/120
f 1/19/121 2/132/122 25/133/123 40/57/124
f 11/41/125 12/42/126 33/60/127 42/59/128
f 5/27/129 1/130/130 40/57/131 49/118/132
f 2/20/133 6/124/134 50/125/135 25/58/136
f 7/31/137 3/141/138 18/153/139 54/144/140
f 4/24/141 8/135/142 55/146/143 36/54/144
f 6/28/145 5/127/146 49/128/147 50/62/148
f 8/32/149 7/137/150 54/145/151 55/66/152
f 13/45/153 9/35/154 31/55/155 65/69/156
f 10/36/157 14/46/158 66/70/159 38/56/160
f 15/51/161 11/41/162 42/59/163 71/71/164
f 12/42/165 16/52/166 72/72/167 33/60/168
f 14/46/169 13/45/170 65/69/171 66/70/172
f 16/52/173 15/51/174 71/71/175 72/72/176
f 22/64/177 52/92/178 62/89/179 63/85/180
