# This file uses centimeters as units for non-parametric coordinates.

mtllib bulletdone1.mtl
g default
v -0.009685 0.072988 -0.059570
v -0.032453 0.072988 -0.045879
v -0.042824 0.072988 -0.021420
v -0.036838 0.072988 0.004464
v -0.016782 0.072988 0.021886
v 0.009685 0.072988 0.024192
v 0.032453 0.072988 0.010501
v 0.042824 0.072988 -0.013958
v 0.036838 0.072988 -0.039842
v 0.016782 0.072988 -0.057265
v -0.009685 0.195839 -0.059570
v -0.032453 0.195839 -0.045879
v -0.042824 0.195839 -0.021420
v -0.036838 0.195839 0.004464
v -0.016782 0.195839 0.021886
v 0.009685 0.195839 0.024192
v 0.032453 0.195839 0.010501
v 0.042824 0.195839 -0.013958
v 0.036838 0.195839 -0.039842
v 0.016782 0.195839 -0.057265
v 0.000000 0.072988 -0.017689
v -0.007477 0.215574 -0.050021
v -0.025053 0.215574 -0.039451
v -0.033060 0.215574 -0.020569
v -0.028439 0.215574 -0.000587
v -0.012955 0.215574 0.012863
v 0.007477 0.215574 0.014643
v 0.025053 0.215574 0.004073
v 0.033060 0.215574 -0.014809
v 0.028439 0.215574 -0.034791
v 0.012955 0.215574 -0.048241
v -0.005378 0.230336 -0.040945
v -0.018020 0.230336 -0.033342
v -0.023779 0.230336 -0.019761
v -0.020456 0.230336 -0.005388
v -0.009318 0.230336 0.004286
v 0.005378 0.230336 0.005567
v 0.018020 0.230336 -0.002036
v 0.023779 0.230336 -0.015618
v 0.020456 0.230336 -0.029990
v 0.009318 0.230336 -0.039665
v -0.003030 0.242586 -0.030790
v -0.010151 0.242586 -0.026507
v -0.000000 0.242586 -0.017689
v -0.013395 0.242586 -0.018856
v -0.011523 0.242586 -0.010760
v -0.005249 0.242586 -0.005310
v 0.003030 0.242586 -0.004589
v 0.010151 0.242586 -0.008871
v 0.013395 0.242586 -0.016522
v 0.011523 0.242586 -0.024619
v 0.005249 0.242586 -0.030068
v -0.009685 0.103381 -0.059570
v -0.032453 0.103381 -0.045879
v -0.042824 0.103381 -0.021420
v -0.036838 0.103381 0.004464
v -0.016782 0.103381 0.021886
v 0.009685 0.103381 0.024192
v 0.032453 0.103381 0.010501
v 0.042824 0.103381 -0.013958
v 0.036838 0.103381 -0.039842
v 0.016782 0.103381 -0.057265
v -0.009685 0.087922 -0.059570
v -0.032453 0.087922 -0.045879
v -0.042824 0.087922 -0.021420
v -0.036838 0.087922 0.004464
v -0.016782 0.087922 0.021886
v 0.009685 0.087922 0.024192
v 0.032453 0.087922 0.010501
v 0.042824 0.087922 -0.013958
v 0.036838 0.087922 -0.039842
v 0.016782 0.087922 -0.057265
v -0.008666 0.087922 -0.055163
v -0.029037 0.087922 -0.042912
v -0.029037 0.103381 -0.042912
v -0.008666 0.103381 -0.055163
v -0.038318 0.087922 -0.021027
v -0.038318 0.103381 -0.021027
v -0.032962 0.087922 0.002133
v -0.032962 0.103381 0.002133
v -0.015016 0.087922 0.017722
v -0.015016 0.103381 0.017722
v 0.008666 0.087922 0.019785
v 0.008666 0.103381 0.019785
v 0.029037 0.087922 0.007534
v 0.029037 0.103381 0.007534
v 0.038318 0.087922 -0.014351
v 0.038318 0.103381 -0.014351
v 0.032962 0.087922 -0.037511
v 0.032962 0.103381 -0.037511
v 0.015016 0.087922 -0.053100
v 0.015016 0.103381 -0.053100
vt 0.869441 0.133768
vt 0.868756 0.239451
vt 0.420039 0.141415
vt 0.436186 0.277330
vt 0.466906 0.139435
vt 0.481359 0.260906
vt 0.513781 0.139028
vt 0.525387 0.251554
vt 0.561792 0.137615
vt 0.569692 0.248328
vt 0.610148 0.132995
vt 0.614509 0.251222
vt 0.659406 0.124795
vt 0.659672 0.260514
vt 0.778136 0.129868
vt 0.782032 0.245260
vt 0.823381 0.133659
vt 0.825579 0.239348
vt 0.865879 0.087958
vt 0.848204 0.013170
vt 0.438953 0.055004
vt 0.473279 0.075981
vt 0.515684 0.088271
vt 0.556880 0.090418
vt 0.597412 0.081657
vt 0.637831 0.060525
vt 0.792022 0.077955
vt 0.828623 0.087671
vt 0.855029 0.308901
vt 0.849016 0.331669
vt 0.514983 0.344388
vt 0.527636 0.333256
vt 0.546235 0.326710
vt 0.564259 0.322956
vt 0.581187 0.325914
vt 0.815730 0.327312
vt 0.824774 0.315309
vt 0.839132 0.309146
vt 0.899474 0.273300
vt 0.864765 0.265755
vt 0.461958 0.309116
vt 0.494866 0.289971
vt 0.531023 0.279778
vt 0.568219 0.276419
vt 0.605249 0.280420
vt 0.761134 0.290668
vt 0.793338 0.273642
vt 0.828714 0.265867
vt 0.885793 0.294919
vt 0.860326 0.287460
vt 0.487971 0.329950
vt 0.510024 0.312591
vt 0.537463 0.303175
vt 0.566118 0.299840
vt 0.594217 0.303906
vt 0.786686 0.312481
vt 0.807110 0.295806
vt 0.832982 0.287728
vt 0.868378 0.110634
vt 0.869338 0.127158
vt 0.423761 0.110489
vt 0.423242 0.132350
vt 0.469509 0.107897
vt 0.467635 0.130810
vt 0.513983 0.113176
vt 0.513868 0.131727
vt 0.559552 0.113642
vt 0.561312 0.130755
vt 0.604560 0.106126
vt 0.608634 0.125353
vt 0.745153 0.089913
vt 0.738987 0.113610
vt 0.784404 0.102852
vt 0.779870 0.122293
vt 0.825709 0.110449
vt 0.824079 0.127042
vt 0.909129 0.096011
vt 0.868030 0.104250
vt 0.421041 0.101983
vt 0.470365 0.098543
vt 0.514343 0.106094
vt 0.559013 0.107111
vt 0.603076 0.098884
vt 0.745695 0.079491
vt 0.786337 0.095573
vt 0.826584 0.104095
vt 0.962824 0.123976
vt 0.911418 0.245780
vt 0.903259 0.078830
vt 0.941304 0.058177
vt 0.869063 0.314470
vt 0.877551 0.325568
vt 0.874099 0.340794
vt 0.863608 0.352046
vt 0.953541 0.258465
vt 0.929908 0.289862
vt 0.905511 0.310774
vt 0.910607 0.103309
vt 0.950526 0.091368
vt 0.949914 0.081254
vt 0.915515 0.130323
vt 0.914276 0.122664
vt 0.957431 0.114802
vt 0.646577 0.093256
vt 0.653704 0.115985
vt 0.734273 0.122626
vt 0.646128 0.083298
vt 0.737106 0.257665
vt 0.593438 0.335392
vt 0.567199 0.347642
vt 0.617634 0.317232
vt 0.639150 0.293930
vt 0.547141 0.014562
vt 0.755510 0.056959
vn -0.515354 0.000000 -0.856977
vn -0.515354 0.000000 -0.856977
vn -0.515354 0.000000 -0.856977
vn -0.515354 0.000000 -0.856977
vn -0.920649 0.000000 -0.390392
vn -0.920649 0.000000 -0.390392
vn -0.920649 0.000000 -0.390392
vn -0.920649 0.000000 -0.390392
vn -0.974287 0.000000 0.225310
vn -0.974287 0.000000 0.225310
vn -0.974287 0.000000 0.225310
vn -0.974287 0.000000 0.225310
vn -0.655781 0.000000 0.754952
vn -0.655781 0.000000 0.754952
vn -0.655781 0.000000 0.754952
vn -0.655781 0.000000 0.754952
vn -0.086789 0.000000 0.996227
vn -0.086789 0.000000 0.996227
vn -0.086789 0.000000 0.996227
vn -0.086789 0.000000 0.996227
vn 0.515354 0.000000 0.856977
vn 0.515354 0.000000 0.856977
vn 0.515354 0.000000 0.856977
vn 0.515354 0.000000 0.856977
vn 0.920649 0.000000 0.390392
vn 0.920649 0.000000 0.390392
vn 0.920649 0.000000 0.390392
vn 0.920649 0.000000 0.390392
vn 0.974287 -0.000000 -0.225310
vn 0.974287 -0.000000 -0.225310
vn 0.974287 -0.000000 -0.225310
vn 0.974287 -0.000000 -0.225310
vn 0.655781 0.000000 -0.754951
vn 0.655781 0.000000 -0.754951
vn 0.655781 0.000000 -0.754951
vn 0.655781 0.000000 -0.754951
vn 0.086789 0.000000 -0.996227
vn 0.086789 0.000000 -0.996227
vn 0.086789 0.000000 -0.996227
vn 0.086789 0.000000 -0.996227
vn 0.000000 -1.000000 0.000000
vn 0.000000 -1.000000 0.000000
vn 0.000000 -1.000000 0.000000
vn 0.000000 -1.000000 0.000000
vn 0.000000 -1.000000 0.000000
vn 0.000000 -1.000000 0.000000
vn -0.000000 -1.000000 -0.000000
vn -0.000000 -1.000000 -0.000000
vn 0.000000 -1.000000 0.000000
vn 0.000000 -1.000000 0.000000
vn 0.000000 -1.000000 0.000000
vn -0.000001 1.000000 -0.000001
vn 0.000000 1.000000 0.000000
vn -0.000000 1.000000 -0.000000
vn 0.000000 1.000000 0.000000
vn 0.000000 1.000000 0.000000
vn 0.000000 1.000000 0.000000
vn 0.000000 1.000000 0.000000
vn 0.000000 1.000000 0.000000
vn -0.000000 1.000000 -0.000000
vn 0.000000 1.000000 0.000000
vn -0.000001 1.000000 -0.000000
vn -0.465987 0.427092 -0.774886
vn -0.465987 0.427093 -0.774886
vn -0.465987 0.427093 -0.774886
vn -0.465987 0.427093 -0.774886
vn -0.832458 0.427092 -0.352996
vn -0.832458 0.427092 -0.352996
vn -0.832458 0.427092 -0.352996
vn -0.832458 0.427092 -0.352996
vn -0.880958 0.427092 0.203727
vn -0.880958 0.427092 0.203727
vn -0.880958 0.427092 0.203727
vn -0.880958 0.427092 0.203727
vn -0.592962 0.427093 0.682633
vn -0.592962 0.427093 0.682633
vn -0.592962 0.427093 0.682633
vn -0.592962 0.427093 0.682633
vn -0.078475 0.427093 0.900796
vn -0.078475 0.427093 0.900796
vn -0.078475 0.427093 0.900796
vn -0.078475 0.427093 0.900796
vn 0.465987 0.427093 0.774886
vn 0.465987 0.427093 0.774886
vn 0.465987 0.427093 0.774886
vn 0.465987 0.427093 0.774886
vn 0.832458 0.427093 0.352996
vn 0.832458 0.427093 0.352996
vn 0.832458 0.427093 0.352996
vn 0.832458 0.427093 0.352996
vn 0.880958 0.427093 -0.203727
vn 0.880958 0.427093 -0.203727
vn 0.880958 0.427093 -0.203727
vn 0.880958 0.427093 -0.203727
vn 0.592962 0.427093 -0.682633
vn 0.592962 0.427093 -0.682633
vn 0.592962 0.427093 -0.682633
vn 0.592962 0.427093 -0.682633
vn 0.078475 0.427093 -0.900796
vn 0.078475 0.427093 -0.900796
vn 0.078475 0.427093 -0.900796
vn 0.078475 0.427093 -0.900796
vn -0.441884 0.514587 -0.734805
vn -0.441884 0.514587 -0.734805
vn -0.441884 0.514587 -0.734805
vn -0.441884 0.514587 -0.734805
vn -0.789399 0.514588 -0.334737
vn -0.789399 0.514588 -0.334737
vn -0.789399 0.514588 -0.334737
vn -0.789399 0.514588 -0.334737
vn -0.835391 0.514587 0.193189
vn -0.835391 0.514587 0.193189
vn -0.835391 0.514587 0.193189
vn -0.835391 0.514587 0.193189
vn -0.562291 0.514587 0.647324
vn -0.562291 0.514587 0.647324
vn -0.562291 0.514587 0.647324
vn -0.562291 0.514587 0.647324
vn -0.074416 0.514587 0.854203
vn -0.074416 0.514587 0.854203
vn -0.074416 0.514587 0.854203
vn -0.074416 0.514587 0.854203
vn 0.441885 0.514587 0.734805
vn 0.441885 0.514587 0.734805
vn 0.441885 0.514587 0.734805
vn 0.441885 0.514587 0.734805
vn 0.789399 0.514588 0.334737
vn 0.789399 0.514588 0.334737
vn 0.789399 0.514588 0.334737
vn 0.789399 0.514588 0.334737
vn 0.835391 0.514587 -0.193189
vn 0.835391 0.514587 -0.193189
vn 0.835391 0.514587 -0.193188
vn 0.835391 0.514587 -0.193189
vn 0.562292 0.514587 -0.647324
vn 0.562292 0.514587 -0.647324
vn 0.562292 0.514587 -0.647324
vn 0.562292 0.514587 -0.647324
vn 0.074416 0.514587 -0.854203
vn 0.074416 0.514587 -0.854203
vn 0.074416 0.514587 -0.854203
vn 0.074416 0.514587 -0.854203
vn -0.400610 0.629069 -0.666171
vn -0.400610 0.629070 -0.666171
vn -0.400610 0.629069 -0.666171
vn -0.400610 0.629069 -0.666171
vn -0.715666 0.629069 -0.303471
vn -0.715666 0.629069 -0.303471
vn -0.715666 0.629069 -0.303471
vn -0.715666 0.629069 -0.303471
vn -0.757361 0.629069 0.175145
vn -0.757361 0.629069 0.175145
vn -0.757361 0.629069 0.175145
vn -0.757361 0.629069 0.175145
vn -0.509771 0.629069 0.586861
vn -0.509771 0.629069 0.586861
vn -0.509771 0.629069 0.586861
vn -0.509771 0.629069 0.586861
vn -0.067465 0.629069 0.774416
vn -0.067465 0.629069 0.774416
vn -0.067465 0.629069 0.774416
vn -0.067465 0.629069 0.774416
vn 0.400611 0.629069 0.666170
vn 0.400611 0.629069 0.666170
vn 0.400611 0.629069 0.666170
vn 0.400611 0.629069 0.666170
vn 0.715665 0.629069 0.303471
vn 0.715665 0.629069 0.303471
vn 0.715665 0.629069 0.303471
vn 0.715665 0.629069 0.303471
vn 0.757361 0.629070 -0.175144
vn 0.757361 0.629070 -0.175144
vn 0.757361 0.629070 -0.175144
vn 0.757361 0.629070 -0.175144
vn 0.509771 0.629069 -0.586861
vn 0.509771 0.629069 -0.586861
vn 0.509771 0.629069 -0.586861
vn 0.509771 0.629069 -0.586861
vn 0.067465 0.629069 -0.774416
vn 0.067465 0.629069 -0.774416
vn 0.067465 0.629069 -0.774416
vn 0.067465 0.629069 -0.774416
vn -0.515354 -0.000000 -0.856978
vn -0.515354 -0.000000 -0.856978
vn -0.515354 -0.000000 -0.856978
vn -0.515354 -0.000000 -0.856978
vn -0.920649 0.000000 -0.390392
vn -0.920649 0.000000 -0.390392
vn -0.920649 0.000000 -0.390392
vn -0.920649 0.000000 -0.390392
vn -0.974287 0.000000 0.225310
vn -0.974287 0.000000 0.225310
vn -0.974287 0.000000 0.225310
vn -0.974287 0.000000 0.225310
vn -0.655781 0.000000 0.754951
vn -0.655781 0.000000 0.754951
vn -0.655781 0.000000 0.754951
vn -0.655781 0.000000 0.754951
vn -0.086789 0.000000 0.996227
vn -0.086789 0.000000 0.996227
vn -0.086789 0.000000 0.996227
vn -0.086789 0.000000 0.996227
vn 0.515354 -0.000000 0.856977
vn 0.515354 -0.000000 0.856977
vn 0.515354 -0.000000 0.856977
vn 0.515354 -0.000000 0.856977
vn 0.920649 0.000000 0.390392
vn 0.920649 0.000000 0.390392
vn 0.920649 0.000000 0.390392
vn 0.920649 0.000000 0.390392
vn 0.974287 0.000000 -0.225310
vn 0.974287 0.000000 -0.225310
vn 0.974287 0.000000 -0.225310
vn 0.974287 0.000000 -0.225310
vn 0.655781 0.000000 -0.754951
vn 0.655781 0.000000 -0.754951
vn 0.655781 0.000000 -0.754951
vn 0.655781 0.000000 -0.754951
vn 0.086789 0.000000 -0.996227
vn 0.086789 0.000000 -0.996227
vn 0.086789 0.000000 -0.996227
vn 0.086789 0.000000 -0.996227
vn -0.515354 0.000000 -0.856977
vn -0.515354 0.000000 -0.856977
vn -0.515354 0.000000 -0.856977
vn -0.515354 0.000000 -0.856977
vn -0.920649 0.000000 -0.390392
vn -0.920649 0.000000 -0.390392
vn -0.920649 0.000000 -0.390392
vn -0.920649 0.000000 -0.390392
vn -0.974287 0.000000 0.225310
vn -0.974287 0.000000 0.225310
vn -0.974287 0.000000 0.225310
vn -0.974287 0.000000 0.225310
vn -0.655781 0.000000 0.754951
vn -0.655781 0.000000 0.754951
vn -0.655781 0.000000 0.754951
vn -0.655781 0.000000 0.754951
vn -0.086789 0.000000 0.996227
vn -0.086789 0.000000 0.996227
vn -0.086789 0.000000 0.996227
vn -0.086789 0.000000 0.996227
vn 0.515354 0.000000 0.856977
vn 0.515354 0.000000 0.856977
vn 0.515354 0.000000 0.856977
vn 0.515354 0.000000 0.856977
vn 0.920649 0.000000 0.390392
vn 0.920649 0.000000 0.390392
vn 0.920649 0.000000 0.390392
vn 0.920649 0.000000 0.390392
vn 0.974287 0.000000 -0.225310
vn 0.974287 0.000000 -0.225310
vn 0.974287 0.000000 -0.225310
vn 0.974287 0.000000 -0.225310
vn 0.655781 0.000000 -0.754951
vn 0.655781 0.000000 -0.754951
vn 0.655781 0.000000 -0.754951
vn 0.655781 0.000000 -0.754951
vn 0.086789 0.000000 -0.996227
vn 0.086789 0.000000 -0.996227
vn 0.086789 0.000000 -0.996227
vn 0.086789 0.000000 -0.996227
vn 0.000000 1.000000 0.000000
vn -0.000001 1.000000 -0.000000
vn -0.000001 1.000000 -0.000000
vn 0.000000 1.000000 0.000000
vn 0.000001 -1.000000 0.000000
vn 0.000000 -1.000000 0.000000
vn 0.000000 -1.000000 0.000000
vn 0.000001 -1.000000 0.000000
vn -0.000001 1.000000 -0.000000
vn -0.000001 1.000000 -0.000000
vn 0.000001 -1.000000 0.000000
vn 0.000001 -1.000000 0.000000
vn -0.000000 1.000000 -0.000000
vn -0.000000 1.000000 -0.000000
vn 0.000000 -1.000000 0.000000
vn 0.000000 -1.000000 0.000000
vn 0.000000 1.000000 0.000000
vn 0.000000 1.000000 0.000000
vn -0.000000 -1.000000 -0.000000
vn -0.000000 -1.000000 -0.000000
vn 0.000000 1.000000 0.000000
vn 0.000000 1.000000 0.000000
vn -0.000000 -1.000000 -0.000000
vn -0.000000 -1.000000 -0.000000
vn 0.000001 1.000000 0.000000
vn 0.000001 1.000000 0.000000
vn -0.000000 -1.000000 -0.000000
vn -0.000000 -1.000000 -0.000000
vn 0.000000 1.000000 0.000000
vn 0.000000 1.000000 0.000000
vn -0.000000 -1.000000 -0.000000
vn -0.000000 -1.000000 -0.000000
vn -0.000000 1.000000 -0.000000
vn -0.000000 1.000000 -0.000000
vn 0.000000 -1.000000 0.000000
vn 0.000000 -1.000000 0.000000
vn -0.000000 1.000000 -0.000000
vn -0.000000 1.000000 -0.000000
vn 0.000000 -1.000000 0.000000
vn 0.000000 -1.000000 0.000000
s off
g pCylinder2
usemtl lambert3SG
f 53/1/1 54/101/2 12/88/3 11/2/4
f 54/101/5 55/87/6 13/95/7 12/88/8
f 55/3/9 56/5/10 14/6/11 13/4/12
f 56/5/13 57/7/14 15/8/15 14/6/16
f 57/7/17 58/9/18 16/10/19 15/8/20
f 58/9/21 59/11/22 17/12/23 16/10/24
f 59/11/25 60/13/26 18/14/27 17/12/28
f 60/106/29 61/15/30 19/16/31 18/108/32
f 61/15/33 62/17/34 20/18/35 19/16/36
f 62/17/37 53/1/38 11/2/39 20/18/40
s 1
f 2/89/41 1/19/42 21/20/43
f 3/90/44 2/89/41 21/20/43
f 4/22/45 3/21/44 21/113/43
f 5/23/46 4/22/45 21/113/43
f 6/24/47 5/23/46 21/113/43
f 7/25/48 6/24/47 21/113/43
f 8/26/49 7/25/48 21/113/43
f 9/27/50 8/114/49 21/20/43
f 10/28/51 9/27/50 21/20/43
f 1/19/42 10/28/51 21/20/43
s 2
f 42/29/52 43/91/53 44/30/54
f 43/91/53 45/92/55 44/30/54
f 45/92/55 46/93/56 44/30/54
f 46/93/56 47/94/57 44/30/54
f 47/33/57 48/34/58 44/110/54
f 48/34/58 49/35/59 44/110/54
f 49/35/59 50/109/60 44/110/54
f 50/36/60 51/37/61 44/30/54
f 51/37/61 52/38/62 44/30/54
f 52/38/62 42/29/52 44/30/54
s off
f 11/2/63 12/88/64 23/39/65 22/40/66
f 12/88/67 13/95/68 24/96/69 23/39/70
f 13/4/71 14/6/72 25/42/73 24/41/74
f 14/6/75 15/8/76 26/43/77 25/42/78
f 15/8/79 16/10/80 27/44/81 26/43/82
f 16/10/83 17/12/84 28/45/85 27/44/86
f 17/12/87 18/14/88 29/112/89 28/45/90
f 18/108/91 19/16/92 30/47/93 29/46/94
f 19/16/95 20/18/96 31/48/97 30/47/98
f 20/18/99 11/2/100 22/40/101 31/48/102
f 22/40/103 23/39/104 33/49/105 32/50/106
f 23/39/107 24/96/108 34/97/109 33/49/110
f 24/41/111 25/42/112 35/52/113 34/51/114
f 25/42/115 26/43/116 36/53/117 35/52/118
f 26/43/119 27/44/120 37/54/121 36/53/122
f 27/44/123 28/45/124 38/55/125 37/54/126
f 28/45/127 29/112/128 39/111/129 38/55/130
f 29/46/131 30/47/132 40/57/133 39/56/134
f 30/47/135 31/48/136 41/58/137 40/57/138
f 31/48/139 22/40/140 32/50/141 41/58/142
f 32/50/143 33/49/144 43/91/145 42/29/146
f 33/49/147 34/97/148 45/92/149 43/91/150
f 34/51/151 35/52/152 46/32/153 45/31/154
f 35/52/155 36/53/156 47/33/157 46/32/158
f 36/53/159 37/54/160 48/34/161 47/33/162
f 37/54/163 38/55/164 49/35/165 48/34/166
f 38/55/167 39/111/168 50/109/169 49/35/170
f 39/56/171 40/57/172 51/37/173 50/36/174
f 40/57/175 41/58/176 52/38/177 51/37/178
f 41/58/179 32/50/180 42/29/181 52/38/182
f 73/59/183 74/98/184 75/102/185 76/60/186
f 74/98/187 77/99/188 78/103/189 75/102/190
f 77/61/191 79/63/192 80/64/193 78/62/194
f 79/63/195 81/65/196 82/66/197 80/64/198
f 81/65/199 83/67/200 84/68/201 82/66/202
f 83/67/203 85/69/204 86/70/205 84/68/206
f 85/69/207 87/104/208 88/105/209 86/70/210
f 87/71/211 89/73/212 90/74/213 88/72/214
f 89/73/215 91/75/216 92/76/217 90/74/218
f 91/75/219 73/59/220 76/60/221 92/76/222
f 1/19/223 2/89/224 64/77/225 63/78/226
f 2/89/227 3/90/228 65/100/229 64/77/230
f 3/21/231 4/22/232 66/80/233 65/79/234
f 4/22/235 5/23/236 67/81/237 66/80/238
f 5/23/239 6/24/240 68/82/241 67/81/242
f 6/24/243 7/25/244 69/83/245 68/82/246
f 7/25/247 8/26/248 70/107/249 69/83/250
f 8/114/251 9/27/252 71/85/253 70/84/254
f 9/27/255 10/28/256 72/86/257 71/85/258
f 10/28/259 1/19/260 63/78/261 72/86/262
s 3
f 63/78/263 64/77/264 74/98/265 73/59/266
s 4
f 54/101/267 53/1/268 76/60/269 75/102/270
s 3
f 64/77/264 65/100/271 77/99/272 74/98/265
s 4
f 55/87/273 54/101/267 75/102/270 78/103/274
s 3
f 65/79/271 66/80/275 79/63/276 77/61/272
s 4
f 56/5/277 55/3/273 78/62/274 80/64/278
s 3
f 66/80/275 67/81/279 81/65/280 79/63/276
s 4
f 57/7/281 56/5/277 80/64/278 82/66/282
s 3
f 67/81/279 68/82/283 83/67/284 81/65/280
s 4
f 58/9/285 57/7/281 82/66/282 84/68/286
s 3
f 68/82/283 69/83/287 85/69/288 83/67/284
s 4
f 59/11/289 58/9/285 84/68/286 86/70/290
s 3
f 69/83/287 70/107/291 87/104/292 85/69/288
s 4
f 60/13/293 59/11/289 86/70/290 88/105/294
s 3
f 70/84/291 71/85/295 89/73/296 87/71/292
s 4
f 61/15/297 60/106/293 88/72/294 90/74/298
s 3
f 71/85/295 72/86/299 91/75/300 89/73/296
s 4
f 62/17/301 61/15/297 90/74/298 92/76/302
s 3
f 72/86/299 63/78/263 73/59/266 91/75/300
s 4
f 53/1/268 62/17/301 92/76/302 76/60/269
