# This file uses centimeters as units for non-parametric coordinates.

mtllib Crychamber.mtl
g default
v -0.447454 -0.125461 1.449113
v -0.109215 -0.125461 1.955558
v 0.511509 -0.125461 2.121881
v 1.132234 -0.125461 1.955558
v 1.586636 -0.125461 1.501156
v 1.752959 -0.125461 0.880431
v 1.586636 -0.125461 0.259707
v 1.132234 -0.125461 -0.194695
v 0.511509 -0.125461 -0.361018
v -0.109215 -0.125461 -0.194695
v -0.447454 -0.125461 0.311750
v -0.599832 -0.125461 0.880431
v -0.204244 3.472128 1.308695
v 0.109267 3.472128 1.622206
v 0.537531 3.472128 1.736959
v 0.965795 3.472128 1.622206
v 1.279306 3.472128 1.308695
v 1.394059 3.472128 0.880431
v 1.279306 3.472128 0.452167
v 0.965795 3.472128 0.138657
v 0.537531 3.472128 0.023904
v 0.109267 3.472128 0.138657
v -0.204244 3.472128 0.452167
v -0.318997 3.472128 0.880431
v 0.537531 -0.125461 0.880431
v 0.537531 3.472128 0.880431
v -0.328494 3.080577 1.380431
v 0.037531 3.080577 1.746457
v 0.537531 3.080577 1.880431
v 1.037531 3.080577 1.746457
v 1.403556 3.080577 1.380431
v 1.537531 3.080577 0.880431
v 1.403556 3.080577 0.380431
v 1.037531 3.080577 0.014406
v 0.537531 3.080577 -0.119569
v 0.037531 3.080577 0.014406
v -0.328494 3.080577 0.380431
v -0.462469 3.080577 0.880431
v -0.328494 0.195142 1.380431
v 0.037531 0.195142 1.746457
v 0.537531 0.195142 1.880431
v 1.037531 0.195142 1.746457
v 1.403556 0.195142 1.380431
v 1.537531 0.195142 0.880431
v 1.403556 0.195142 0.380431
v 1.037531 0.195142 0.014406
v 0.537531 0.195142 -0.119569
v 0.037531 0.195142 0.014406
v -0.328494 0.195142 0.380431
v -0.462469 0.195142 0.880431
v -1.145437 -0.125461 1.449113
v -0.729134 -0.125461 1.865416
v -0.660452 0.040420 1.746457
v -1.026478 0.040420 1.380431
v -0.729134 -0.125461 -0.104554
v -1.145437 -0.125461 0.311750
v -1.026478 0.040420 0.380431
v -0.660452 0.040420 0.014406
v -1.297815 -0.125461 0.880431
v -1.160452 0.040420 0.880431
v -0.032721 0.072180 1.882378
v 0.545753 0.072180 2.037380
v 1.124227 0.072180 1.882378
v 1.547699 0.072180 1.458905
v 1.702701 0.072180 0.880431
v 1.547699 0.072180 0.301957
v 1.124227 0.072180 -0.121515
v 0.545753 0.072180 -0.276517
v -0.032721 0.072180 -0.121515
v -0.738112 -0.027266 -0.084178
v -1.145804 -0.027266 0.323514
v -1.295029 -0.027266 0.880431
v -1.145804 -0.027266 1.437349
v -0.738112 -0.027266 1.845041
v -0.328495 3.345063 1.380431
v -0.462469 3.345063 0.880431
v -0.328495 3.345063 0.380431
v 0.037531 3.345063 0.014406
v 0.537531 3.345063 -0.119569
v 1.037531 3.345063 0.014406
v 1.403556 3.345063 0.380431
v 1.537531 3.345063 0.880431
v 1.403556 3.345063 1.380431
v 1.037531 3.345063 1.746457
v 0.537531 3.345063 1.880431
v 0.037531 3.345063 1.746457
vt 0.129823 0.686335
vt 0.196686 0.686335
vt 0.196686 0.705998
vt 0.129823 0.705998
vt 0.129823 0.471824
vt 0.196686 0.471824
vt 0.263550 0.686335
vt 0.263550 0.705998
vt 0.080875 0.686335
vt 0.080875 0.705998
vt 0.263550 0.471824
vt 0.080875 0.471824
vt 0.312498 0.686335
vt 0.312498 0.705998
vt 0.312498 0.471824
vt 0.137673 0.954422
vt 0.198153 0.954422
vt 0.198153 0.974085
vt 0.137673 0.974085
vt 0.137673 0.739911
vt 0.198153 0.739911
vt 0.258632 0.954422
vt 0.258632 0.974085
vt 0.093399 0.954422
vt 0.093399 0.974085
vt 0.258632 0.739911
vt 0.093399 0.739911
vt 0.302906 0.954422
vt 0.302906 0.974085
vt 0.302906 0.739911
vt 0.880120 0.308973
vt 0.880120 0.225965
vt 0.894814 0.225965
vt 0.894814 0.303323
vt 0.880120 0.142957
vt 0.894814 0.148607
vt 0.880120 0.369739
vt 0.894814 0.359952
vt 0.880120 0.082191
vt 0.894814 0.091977
vt 0.786319 0.556365
vt 0.786319 0.480317
vt 0.793619 0.480317
vt 0.793619 0.554792
vt 0.786319 0.404268
vt 0.793619 0.405841
vt 0.786319 0.612036
vt 0.793619 0.609311
vt 0.786319 0.348597
vt 0.793619 0.351322
vt 0.124515 0.217426
vt 0.192240 0.172194
vt 0.268289 0.303913
vt 0.136569 0.134526
vt 0.192240 0.078855
vt 0.268289 0.151817
vt 0.102273 0.300434
vt 0.268289 0.058477
vt 0.344337 0.172194
vt 0.124515 0.383441
vt 0.344337 0.078855
vt 0.412063 0.217426
vt 0.185281 0.444207
vt 0.400008 0.134526
vt 0.434304 0.300434
vt 0.268289 0.466449
vt 0.412063 0.383441
vt 0.351297 0.444207
vt 0.898164 0.685378
vt 0.940089 0.727303
vt 0.840894 0.784574
vt 0.907757 0.668762
vt 0.956705 0.717710
vt 0.955435 0.784574
vt 0.840894 0.670032
vt 0.974621 0.784574
vt 0.840894 0.650846
vt 0.940089 0.841844
vt 0.783623 0.685378
vt 0.956705 0.851437
vt 0.774030 0.668762
vt 0.898164 0.883769
vt 0.741698 0.727303
vt 0.907757 0.900385
vt 0.725083 0.717710
vt 0.840894 0.899115
vt 0.726353 0.784574
vt 0.840894 0.918301
vt 0.707166 0.784574
vt 0.783623 0.883769
vt 0.741698 0.841844
vt 0.774030 0.900385
vt 0.725083 0.851437
vt 0.681181 0.078433
vt 0.735700 0.132953
vt 0.722517 0.143338
vt 0.673569 0.094390
vt 0.740693 0.227283
vt 0.722517 0.236677
vt 0.673569 0.187730
vt 0.606706 0.058477
vt 0.606706 0.076474
vt 0.750479 0.217053
vt 0.738425 0.134153
vt 0.761421 0.304640
vt 0.740433 0.303541
vt 0.606706 0.169814
vt 0.532230 0.078433
vt 0.539842 0.094390
vt 0.772721 0.300061
vt 0.740693 0.381998
vt 0.722517 0.370405
vt 0.539842 0.187730
vt 0.477711 0.132953
vt 0.490894 0.143338
vt 0.750479 0.383069
vt 0.684063 0.438628
vt 0.673569 0.419352
vt 0.490894 0.236677
vt 0.472718 0.227283
vt 0.606706 0.459356
vt 0.606706 0.437268
vt 0.451990 0.304640
vt 0.472978 0.303541
vt 0.462932 0.217053
vt 0.474986 0.134153
vt 0.529348 0.438628
vt 0.539842 0.419352
vt 0.440690 0.300061
vt 0.472718 0.381998
vt 0.490894 0.370405
vt 0.462932 0.383069
vt 0.599636 0.489475
vt 0.532772 0.489475
vt 0.532772 0.469812
vt 0.599636 0.469812
vt 0.599636 0.703986
vt 0.532772 0.703986
vt 0.465909 0.489475
vt 0.465909 0.469812
vt 0.465909 0.703986
vt 0.599284 0.487869
vt 0.532420 0.487869
vt 0.532420 0.468207
vt 0.599284 0.468207
vt 0.599284 0.702380
vt 0.532420 0.702380
vt 0.465556 0.487869
vt 0.465556 0.468207
vt 0.465556 0.702380
vn -0.707107 -0.000000 0.707107
vn -0.707107 -0.000000 0.707107
vn -0.677286 0.287345 0.677286
vn -0.677286 0.287345 0.677286
vn -0.258819 -0.000000 0.965926
vn -0.258819 -0.000000 0.965926
vn -0.247904 0.287345 0.925190
vn -0.247904 0.287345 0.925190
vn 0.258819 -0.000000 0.965926
vn 0.258819 -0.000000 0.965926
vn 0.247904 0.287345 0.925190
vn 0.247904 0.287345 0.925190
vn 0.707107 -0.000000 0.707107
vn 0.707107 -0.000000 0.707107
vn 0.677286 0.287345 0.677286
vn 0.677286 0.287345 0.677286
vn 0.965926 -0.000000 0.258819
vn 0.965926 -0.000000 0.258819
vn 0.925190 0.287345 0.247904
vn 0.925190 0.287345 0.247904
vn 0.965926 -0.000000 -0.258819
vn 0.965926 -0.000000 -0.258819
vn 0.925190 0.287345 -0.247904
vn 0.925190 0.287345 -0.247904
vn 0.707107 -0.000000 -0.707107
vn 0.707107 -0.000000 -0.707107
vn 0.677286 0.287345 -0.677286
vn 0.677286 0.287345 -0.677286
vn 0.258819 0.000000 -0.965926
vn 0.258819 0.000000 -0.965926
vn 0.247904 0.287345 -0.925190
vn 0.247904 0.287345 -0.925190
vn -0.258819 0.000000 -0.965926
vn -0.258819 0.000000 -0.965926
vn -0.247904 0.287345 -0.925190
vn -0.247904 0.287345 -0.925190
vn -0.707107 -0.000000 -0.707107
vn -0.707107 -0.000000 -0.707107
vn -0.677286 0.287345 -0.677286
vn -0.677286 0.287345 -0.677286
vn -0.965926 0.000000 -0.258819
vn -0.965926 0.000000 -0.258819
vn -0.925190 0.287345 -0.247904
vn -0.925190 0.287345 -0.247904
vn -0.965926 0.000000 0.258819
vn -0.965926 0.000000 0.258819
vn -0.925190 0.287345 0.247904
vn -0.925190 0.287345 0.247904
vn -0.000000 -1.000000 -0.000000
vn 0.000000 -1.000000 0.000000
vn -0.000000 -1.000000 -0.000000
vn -0.000000 -1.000000 -0.000000
vn 0.000000 -1.000000 0.000000
vn 0.000000 -1.000000 0.000000
vn 0.000000 -1.000000 0.000000
vn 0.000000 -1.000000 0.000000
vn -0.000000 -1.000000 -0.000000
vn -0.000000 -1.000000 -0.000000
vn 0.000000 -1.000000 0.000000
vn 0.000000 -1.000000 0.000000
vn 0.000000 -1.000000 0.000000
vn -0.000000 1.000000 -0.000000
vn -0.000000 1.000000 0.000000
vn -0.000000 1.000000 -0.000000
vn -0.000000 1.000000 -0.000000
vn -0.000000 1.000000 -0.000000
vn -0.000000 1.000000 -0.000000
vn -0.000000 1.000000 -0.000000
vn -0.000000 1.000000 0.000000
vn -0.000000 1.000000 0.000000
vn -0.000000 1.000000 -0.000000
vn -0.000000 1.000000 -0.000000
vn 0.000000 1.000000 0.000000
vn -0.000000 1.000000 0.000000
vn -0.707107 0.000000 0.707107
vn -0.707107 0.000000 0.707107
vn -0.258358 0.059652 0.964206
vn -0.258312 0.062555 0.964034
vn 0.258334 0.061199 0.964115
vn 0.258287 0.064124 0.963938
vn 0.705705 0.062939 0.705705
vn 0.705607 0.065093 0.705607
vn 0.963920 0.064404 0.258282
vn 0.963871 0.065195 0.258269
vn 0.963871 0.065195 -0.258269
vn 0.963920 0.064404 -0.258282
vn 0.705607 0.065093 -0.705607
vn 0.705705 0.062939 -0.705705
vn 0.258287 0.064124 -0.963938
vn 0.258334 0.061199 -0.964115
vn -0.258312 0.062555 -0.964034
vn -0.258358 0.059652 -0.964206
vn -0.707107 0.000000 -0.707107
vn -0.707107 0.000000 -0.707107
vn -0.965926 0.000000 -0.258819
vn -0.965926 0.000000 -0.258819
vn -0.965926 0.000000 0.258819
vn -0.965926 0.000000 0.258819
vn -0.573959 0.584073 0.573959
vn -0.590286 0.550567 0.590286
vn -0.337483 0.878755 0.337483
vn -0.337483 0.878755 0.337483
vn -0.214720 0.558337 0.801346
vn -0.211632 0.575667 0.789823
vn 0.220291 0.524941 0.822137
vn 0.216362 0.548790 0.807475
vn 0.613722 0.496679 0.613722
vn 0.604360 0.519133 0.604360
vn 0.844788 0.484865 0.226360
vn 0.839687 0.494271 0.224993
vn 0.839687 0.494272 -0.224993
vn 0.844788 0.484865 -0.226360
vn 0.604360 0.519133 -0.604360
vn 0.613722 0.496679 -0.613722
vn 0.216362 0.548790 -0.807475
vn 0.220291 0.524941 -0.822137
vn -0.211632 0.575667 -0.789823
vn -0.214720 0.558337 -0.801346
vn -0.590286 0.550568 -0.590286
vn -0.573959 0.584073 -0.573959
vn -0.337483 0.878755 -0.337484
vn -0.337483 0.878755 -0.337484
vn -0.804321 0.553733 -0.215517
vn -0.794905 0.568120 -0.212994
vn -0.446101 0.886964 -0.119532
vn -0.446101 0.886964 -0.119532
vn -0.794905 0.568120 0.212994
vn -0.804321 0.553733 0.215517
vn -0.446101 0.886964 0.119532
vn -0.446101 0.886964 0.119532
vn 0.000000 -1.000000 0.000000
vn 0.000000 -1.000000 0.000000
vn 0.000000 -1.000000 0.000000
vn 0.000000 -1.000000 0.000000
vn -0.140051 0.542739 0.828142
vn -0.152913 0.678308 0.718691
vn -0.162156 0.813243 0.558875
vn -0.162156 0.813243 0.558875
vn -0.211520 0.954211 0.211520
vn -0.211520 0.954211 0.211520
vn -0.211520 0.954211 0.211520
vn -0.211520 0.954211 0.211520
vn 0.000000 -1.000000 0.000000
vn 0.000000 -1.000000 0.000000
vn 0.000000 -1.000000 0.000000
vn 0.000000 -1.000000 0.000000
vn -0.211520 0.954211 -0.211520
vn -0.211520 0.954211 -0.211520
vn -0.211520 0.954211 -0.211520
vn -0.211520 0.954211 -0.211520
vn -0.162156 0.813243 -0.558874
vn -0.152913 0.678308 -0.718690
vn -0.140051 0.542739 -0.828142
vn -0.162156 0.813243 -0.558874
vn 0.000000 -1.000000 0.000000
vn 0.000000 -1.000000 0.000000
vn 0.000000 -1.000000 0.000000
vn 0.000000 -1.000000 0.000000
vn -0.216054 0.974664 -0.057891
vn -0.216054 0.974664 -0.057891
vn -0.216054 0.974664 -0.057891
vn -0.216054 0.974664 -0.057891
vn 0.000000 -1.000000 0.000000
vn 0.000000 -1.000000 0.000000
vn 0.000000 -1.000000 0.000000
vn 0.000000 -1.000000 0.000000
vn -0.216054 0.974664 0.057891
vn -0.216054 0.974664 0.057891
vn -0.216054 0.974664 0.057891
vn -0.216054 0.974664 0.057891
vn -0.235329 0.416271 0.878259
vn -0.235329 0.416272 0.878259
vn 0.242883 0.345470 0.906454
vn 0.242884 0.345470 0.906454
vn 0.679041 0.278937 0.679041
vn 0.679041 0.278937 0.679041
vn 0.938044 0.238532 0.251348
vn 0.938044 0.238531 0.251348
vn 0.938044 0.238532 -0.251348
vn 0.938044 0.238532 -0.251348
vn 0.679041 0.278937 -0.679041
vn 0.679041 0.278937 -0.679041
vn 0.242884 0.345470 -0.906453
vn 0.242884 0.345470 -0.906454
vn -0.235329 0.416272 -0.878259
vn -0.235329 0.416272 -0.878259
vn -0.114608 0.323219 -0.939359
vn -0.114608 0.323219 -0.939359
vn -0.704737 0.081796 -0.704737
vn -0.704737 0.081796 -0.704737
vn -0.965563 0.027389 -0.258722
vn -0.965563 0.027389 -0.258722
vn -0.965563 0.027389 0.258722
vn -0.965563 0.027389 0.258722
vn -0.704737 0.081795 0.704737
vn -0.704737 0.081795 0.704737
vn -0.114607 0.323219 0.939359
vn -0.114608 0.323219 0.939359
vn -0.652783 0.737075 0.174912
vn -0.652783 0.737075 0.174912
vn -0.652784 0.737075 -0.174912
vn -0.652784 0.737075 -0.174912
vn -0.477870 0.737075 -0.477871
vn -0.477870 0.737075 -0.477871
vn -0.174913 0.737075 -0.652783
vn -0.174913 0.737075 -0.652783
vn 0.174913 0.737075 -0.652783
vn 0.174913 0.737075 -0.652783
vn 0.477870 0.737075 -0.477871
vn 0.477870 0.737075 -0.477871
vn 0.652783 0.737075 -0.174913
vn 0.652783 0.737075 -0.174913
vn 0.652784 0.737075 0.174913
vn 0.652784 0.737075 0.174913
vn 0.477871 0.737075 0.477871
vn 0.477871 0.737075 0.477871
vn 0.174913 0.737075 0.652783
vn 0.174913 0.737075 0.652783
vn -0.174913 0.737075 0.652783
vn -0.174913 0.737075 0.652783
vn -0.477870 0.737075 0.477871
vn -0.477870 0.737075 0.477871
s 1
g Cryochamber
usemtl lambert6SG
f 27/22/1 28/28/2 86/29/3 75/23/4
s 2
f 28/133/5 29/134/6 85/135/7 86/136/8
s 3
f 29/134/9 30/139/10 84/140/11 85/135/12
s 4
f 30/9/13 31/1/14 83/4/15 84/10/16
s 5
f 31/1/17 32/2/18 82/3/19 83/4/20
s 6
f 32/2/21 33/7/22 81/8/23 82/3/24
s 7
f 33/7/25 34/13/26 80/14/27 81/8/28
s 8
f 34/142/29 35/143/30 79/144/31 80/145/32
s 9
f 35/143/33 36/148/34 78/149/35 79/144/36
s 10
f 36/24/37 37/16/38 77/19/39 78/25/40
s 11
f 37/16/41 38/17/42 76/18/43 77/19/44
s 12
f 38/17/45 27/22/46 75/23/47 76/18/48
s 13
f 2/51/49 1/52/50 25/53/51
f 3/57/52 2/51/49 25/53/51
f 4/60/53 3/57/52 25/53/51
f 5/63/54 4/60/53 25/53/51
f 6/66/55 5/63/54 25/53/51
f 7/68/56 6/66/55 25/53/51
f 8/67/57 7/68/56 25/53/51
f 9/65/58 8/67/57 25/53/51
f 10/62/59 9/65/58 25/53/51
f 11/59/60 10/62/59 25/53/51
f 12/56/61 11/59/60 25/53/51
f 1/52/50 12/56/61 25/53/51
s 14
f 13/69/62 14/70/63 26/71/64
f 14/70/63 15/74/65 26/71/64
f 15/74/65 16/78/66 26/71/64
f 16/78/66 17/82/67 26/71/64
f 17/82/67 18/86/68 26/71/64
f 18/86/68 19/90/69 26/71/64
f 19/90/69 20/91/70 26/71/64
f 20/91/70 21/87/71 26/71/64
f 21/87/71 22/83/72 26/71/64
f 22/83/72 23/79/73 26/71/64
f 23/79/73 24/75/74 26/71/64
f 24/75/74 13/69/62 26/71/64
s 1
f 39/26/75 40/30/76 28/28/2 27/22/1
s 2
f 40/137/77 41/138/78 29/134/6 28/133/5
s 3
f 41/138/79 42/141/80 30/139/10 29/134/9
s 4
f 42/12/81 43/5/82 31/1/14 30/9/13
s 5
f 43/5/83 44/6/84 32/2/18 31/1/17
s 6
f 44/6/85 45/11/86 33/7/22 32/2/21
s 7
f 45/11/87 46/15/88 34/13/26 33/7/25
s 8
f 46/146/89 47/147/90 35/143/30 34/142/29
s 9
f 47/147/91 48/150/92 36/148/34 35/143/33
s 10
f 48/27/93 49/20/94 37/16/38 36/24/37
s 11
f 49/20/95 50/21/96 38/17/42 37/16/41
s 12
f 50/21/97 39/26/98 27/22/46 38/17/45
s 15
f 73/94/99 74/95/100 53/96/101 54/97/102
s 2
f 61/98/103 62/105/104 41/106/78 40/99/77
s 3
f 62/105/105 63/111/106 42/112/80 41/106/79
s 4
f 63/111/107 64/117/108 43/118/82 42/112/81
s 5
f 64/117/109 65/121/110 44/122/84 43/118/83
s 6
f 65/121/111 66/127/112 45/128/86 44/122/85
s 7
f 66/127/113 67/130/114 46/131/88 45/128/87
s 8
f 67/130/115 68/123/116 47/124/90 46/131/89
s 9
f 68/123/117 69/120/118 48/119/92 47/124/91
s 16
f 70/114/119 71/108/120 57/109/121 58/115/122
s 17
f 71/108/123 72/101/124 60/102/125 57/109/126
s 18
f 72/101/127 73/94/128 54/97/129 60/102/130
s off
f 1/52/131 2/51/132 52/54/133 51/55/134
s 19
f 74/95/135 61/98/136 40/99/137 53/96/138
s off
f 40/99/139 39/100/140 54/97/141 53/96/142
f 10/62/143 11/59/144 56/61/145 55/64/146
f 49/113/147 48/119/148 58/115/149 57/109/150
s 20
f 48/119/151 69/120/152 70/114/153 58/115/154
s off
f 11/59/155 12/56/156 59/58/157 56/61/158
f 50/107/159 49/113/160 57/109/161 60/102/162
f 12/56/163 1/52/164 51/55/165 59/58/166
f 39/100/167 50/107/168 60/102/169 54/97/170
s 2
f 2/103/171 3/110/172 62/105/104 61/98/103
s 3
f 3/110/173 4/116/174 63/111/106 62/105/105
s 4
f 4/37/175 5/31/176 64/34/108 63/38/107
s 5
f 5/31/177 6/32/178 65/33/110 64/34/109
s 6
f 6/32/179 7/35/180 66/36/112 65/33/111
s 7
f 7/35/181 8/39/182 67/40/114 66/36/113
s 8
f 8/132/183 9/129/184 68/123/116 67/130/115
s 9
f 9/129/185 10/125/186 69/120/118 68/123/117
s 20
f 70/114/153 69/120/152 10/125/187 55/126/188
s 16
f 55/47/189 56/41/190 71/44/120 70/48/119
s 17
f 56/41/191 59/42/192 72/43/124 71/44/123
s 18
f 59/42/193 51/45/194 73/46/128 72/43/127
s 15
f 51/45/195 52/49/196 74/50/100 73/46/99
s 19
f 2/103/197 61/98/136 74/95/135 52/104/198
s 12
f 76/77/48 75/72/47 13/69/199 24/75/200
s 11
f 77/81/44 76/77/43 24/75/201 23/79/202
s 10
f 78/85/40 77/81/39 23/79/203 22/83/204
s 9
f 79/89/36 78/85/35 22/83/205 21/87/206
s 8
f 80/93/32 79/89/31 21/87/207 20/91/208
s 7
f 81/92/28 80/93/27 20/91/209 19/90/210
s 6
f 82/88/24 81/92/23 19/90/211 18/86/212
s 5
f 83/84/20 82/88/19 18/86/213 17/82/214
s 4
f 84/80/16 83/84/15 17/82/215 16/78/216
s 3
f 85/76/12 84/80/11 16/78/217 15/74/218
s 2
f 86/73/8 85/76/7 15/74/219 14/70/220
s 1
f 75/72/4 86/73/3 14/70/221 13/69/222
