# This file uses centimeters as units for non-parametric coordinates.

mtllib Door_S_Right.mtl
g default
v -6.218281 3.116229 -6.000605
v -6.780510 3.116229 -6.000605
v -6.218281 0.003630 -6.000605
v -6.780510 0.003630 -6.000605
v -6.218281 3.116229 -5.821127
v -6.716347 3.116229 -5.821127
v -6.716347 0.003630 -5.821128
v -6.218281 0.003630 -5.821128
v -6.218281 0.003630 -5.862361
v -6.780510 0.003630 -5.862361
v -6.780510 3.116229 -5.862361
v -6.218281 3.116229 -5.862361
v -6.218281 3.116229 -4.992885
v -6.716347 3.116229 -4.992885
v -6.716347 0.003630 -4.992886
v -6.218281 0.003630 -4.992886
vt 0.358340 0.504285
vt 0.033318 0.813469
vt 0.225553 0.792740
vt 0.194642 0.022738
vt 0.386107 0.504285
vt 0.061464 0.794443
vt 0.253894 0.716707
vt 0.386107 0.022738
vt 0.379728 0.022738
vt 0.173255 0.022738
vt 0.054495 0.813469
vt 0.379728 0.504285
vt 0.514244 0.504285
vt 0.887300 0.639336
vt 0.887300 0.022738
vt 0.827122 0.022738
vt 0.033318 0.022738
vt 0.380598 0.716707
vt 0.188362 0.794443
vt 0.033318 0.504285
vt 0.161455 0.504285
vt 0.173255 0.504285
vt 0.670862 0.658097
vt 0.194642 0.504285
vt 0.246927 0.697857
vt 0.161455 0.022738
vt 0.670862 0.022738
vt 0.225553 0.697857
vt 0.380598 0.792740
vt 0.514244 0.022738
vt 0.188362 0.718413
vt 0.827122 0.639336
vt 0.061464 0.718413
vt 0.054495 0.718413
vt 0.736786 0.658097
vt 0.033318 0.718413
vt 0.246927 0.792740
vt 0.253894 0.792740
vt 0.736786 0.022738
vt 0.358341 0.022738
vn 0.000000 1.000000 -0.000000
vn 0.000000 1.000000 -0.000000
vn 0.000000 1.000000 -0.000000
vn 0.000000 1.000000 -0.000000
vn 0.000000 0.000000 -1.000000
vn 0.000000 0.000000 -1.000000
vn 0.000000 0.000000 -1.000000
vn 0.000000 0.000000 -1.000000
vn 0.000000 -1.000000 0.000000
vn 0.000000 -1.000000 0.000000
vn 0.000000 -1.000000 0.000000
vn 0.000000 -1.000000 0.000000
vn -0.997288 -0.000000 0.073595
vn -0.941635 -0.000000 0.336636
vn -0.941635 -0.000000 0.336636
vn -0.997288 -0.000000 0.073595
vn 1.000000 0.000000 0.000000
vn 1.000000 0.000000 0.000000
vn 1.000000 0.000000 0.000000
vn 1.000000 0.000000 0.000000
vn 0.000000 1.000000 -0.000000
vn 0.000000 1.000000 -0.000000
vn -1.000000 -0.000000 -0.000000
vn -1.000000 -0.000000 -0.000000
vn 0.000000 -1.000000 0.000000
vn 0.000000 -1.000000 0.000000
vn 1.000000 0.000000 0.000000
vn 1.000000 0.000000 0.000000
vn 0.000000 -1.000000 0.000000
vn 0.000000 -1.000000 0.000000
vn -1.000000 0.000000 -0.000000
vn -1.000000 0.000000 -0.000000
vn 0.000000 1.000000 -0.000000
vn 0.000000 1.000000 -0.000000
vn 1.000000 0.000000 0.000000
vn 1.000000 0.000000 0.000000
vn -0.000000 -0.000000 1.000000
vn -0.000000 -0.000000 1.000000
vn -0.000000 -0.000000 1.000000
vn -0.000000 -0.000000 1.000000
s 1
g Door_S_Right group1
usemtl lambert4SG
f 5/33/1 12/34/2 11/11/3 6/6/4
s off
f 1/35/5 3/39/6 4/27/7 2/23/8
s 2
f 9/37/9 8/38/10 7/7/11 10/25/12
s 3
f 6/21/13 11/22/14 10/10/15 7/26/16
s 4
f 12/12/17 5/5/18 8/8/19 9/9/20
s 1
f 13/31/21 5/33/1 6/6/4 14/19/22
s 3
f 14/20/23 6/21/13 7/26/16 15/17/24
s 2
f 8/38/10 16/29/25 15/18/26 7/7/11
s 4
f 5/5/18 13/13/27 16/30/28 8/8/19
s 2
f 3/3/29 9/37/9 10/25/12 4/28/30
s 3
f 11/22/14 2/24/31 4/4/32 10/10/15
s 1
f 12/34/2 1/36/33 2/2/34 11/11/3
s 4
f 3/40/35 1/1/36 12/12/17 9/9/20
s off
f 15/15/37 16/16/38 13/32/39 14/14/40
