# This file uses centimeters as units for non-parametric coordinates.

mtllib Door_B_Right.mtl
g default
v -6.014606 0.017120 1.991969
v -6.512672 0.017120 1.991969
v -6.014606 3.129719 1.991969
v -6.512672 3.129719 1.991969
v -6.014606 3.129719 0.009347
v -6.576835 3.129719 0.009347
v -6.014606 0.017120 0.009347
v -6.576835 0.017120 0.009347
v -6.014606 3.129719 0.188823
v -6.512672 3.129719 0.188823
v -6.512672 0.017120 0.188822
v -6.014606 0.017120 0.188822
v -6.014606 0.017120 0.147589
v -6.576835 0.017120 0.147589
v -6.576835 3.129719 0.147590
v -6.014606 3.129719 0.147590
vt 1.296773 0.572757
vt 1.225442 0.640679
vt 0.066765 0.855847
vt 0.195792 0.460998
vt 1.625403 0.084103
vt 0.382676 0.767314
vt 1.625403 0.572757
vt 0.346600 0.046785
vt 1.596947 0.084103
vt 0.325520 0.460998
vt 1.596947 0.640679
vt 1.596947 0.572757
vt 1.603290 0.572757
vt 0.333015 0.046785
vt 0.360914 0.767424
vt 1.603290 0.084103
vt 0.333015 0.460998
vt 0.346600 0.460998
vt 1.603290 0.640679
vt 0.325520 0.046785
vt 0.195792 0.046785
vt 0.353825 0.777263
vt 1.702616 0.640679
vt 1.225442 0.084103
vt 0.360391 0.856753
vt 0.382399 0.856821
vt 1.702616 0.084103
vt 0.353827 0.856733
vt 0.067010 0.776554
vt 1.296773 0.084103
vn 0.000000 0.000000 1.000000
vn 0.000000 0.000000 1.000000
vn 0.000000 0.000000 1.000000
vn 0.000000 0.000000 1.000000
vn 0.000000 1.000000 0.000000
vn 0.000000 1.000000 0.000000
vn 0.000000 1.000000 0.000000
vn 0.000000 1.000000 0.000000
vn 0.000000 0.000000 -1.000000
vn 0.000000 0.000000 -1.000000
vn 0.000000 0.000000 -1.000000
vn 0.000000 0.000000 -1.000000
vn 0.000000 -1.000000 0.000000
vn 0.000000 -1.000000 0.000000
vn 0.000000 -1.000000 0.000000
vn 0.000000 -1.000000 0.000000
vn -0.999395 -0.000000 0.034767
vn -0.941635 -0.000000 0.336637
vn -0.941635 -0.000000 0.336637
vn -0.999395 -0.000000 0.034767
vn 1.000000 -0.000000 0.000000
vn 1.000000 0.000000 0.000000
vn 1.000000 0.000000 0.000000
vn 1.000000 -0.000000 0.000000
vn 0.000000 1.000000 0.000000
vn 0.000000 1.000000 0.000000
vn -1.000000 0.000000 0.000000
vn -1.000000 0.000000 0.000000
vn 0.000000 -1.000000 0.000000
vn 0.000000 -1.000000 0.000000
vn 1.000000 0.000000 0.000000
vn 1.000000 0.000000 0.000000
vn 0.000000 -1.000000 0.000000
vn 0.000000 -1.000000 0.000000
vn -1.000000 -0.000000 0.000000
vn -1.000000 -0.000000 0.000000
vn 0.000000 1.000000 0.000000
vn 0.000000 1.000000 0.000000
vn 1.000000 0.000000 0.000000
vn 1.000000 0.000000 0.000000
s off
g Door_B_Right
usemtl lambert2SG
f 1/1/1 3/30/2 4/24/3 2/2/4
s 1
f 9/28/5 16/25/6 15/15/7 10/22/8
s off
f 5/5/9 7/7/10 8/23/11 6/27/12
s 2
f 13/13/13 12/12/14 11/11/15 14/19/16
s 3
f 10/10/17 15/17/18 14/14/19 11/20/20
s 4
f 16/16/21 9/9/22 12/12/23 13/13/24
s 1
f 3/3/25 9/28/5 10/22/8 4/29/26
s 3
f 2/21/27 4/4/28 10/10/17 11/20/20
s 2
f 12/12/14 1/1/29 2/2/30 11/11/15
s 4
f 9/9/22 3/30/31 1/1/32 12/12/23
s 2
f 7/7/33 13/13/13 14/19/16 8/23/34
s 3
f 15/17/18 6/18/35 8/8/36 14/14/19
s 1
f 16/25/6 5/26/37 6/6/38 15/15/7
s 4
f 7/7/39 5/5/40 16/16/21 13/13/24
