# This file uses centimeters as units for non-parametric coordinates.

mtllib Door_B_Left.mtl
g default
v -6.014606 0.017120 -1.997306
v -6.512672 0.017120 -1.997306
v -6.014606 3.129719 -1.997306
v -6.512672 3.129719 -1.997306
v -6.014606 3.129719 -0.014684
v -6.576835 3.129719 -0.014684
v -6.014606 0.017120 -0.014684
v -6.576835 0.017120 -0.014684
v -6.014606 3.129719 -0.194161
v -6.512672 3.129719 -0.194161
v -6.512672 0.017120 -0.194160
v -6.014606 0.017120 -0.194160
v -6.014606 0.017120 -0.152926
v -6.576835 0.017120 -0.152926
v -6.576835 3.129719 -0.152927
v -6.014606 3.129719 -0.152927
vt 0.701996 0.930597
vt 0.620561 0.090071
vt 0.620561 0.494060
vt 0.602618 0.494060
vt 0.280061 0.857643
vt 0.298004 0.857643
vt 0.164874 0.052252
vt 0.182817 0.052252
vt 0.625913 0.494060
vt 0.625913 0.090071
vt 0.859946 0.090071
vt 0.040679 0.930627
vt 0.725288 0.865952
vt 0.959321 0.865941
vt 0.154975 0.456241
vt 0.027665 0.456241
vt 0.164874 0.456241
vt 0.182817 0.456241
vt 0.719936 0.857624
vt 0.154975 0.052252
vt 0.027665 0.052252
vt 0.274709 0.865972
vt 0.701993 0.857625
vt 0.248259 0.456241
vt 0.280064 0.930616
vt 0.298007 0.930615
vt 0.719939 0.930596
vt 0.725291 0.930596
vt 0.183614 0.052252
vt 0.959324 0.930586
vt 0.274712 0.930616
vt 0.602618 0.090071
vt 0.183614 0.456241
vt 0.859946 0.494060
vt 0.040676 0.865982
vt 0.248259 0.052252
vn 0.000000 0.000000 -1.000000
vn 0.000000 0.000000 -1.000000
vn 0.000000 0.000000 -1.000000
vn 0.000000 0.000000 -1.000000
vn 0.000000 1.000000 0.000000
vn 0.000000 1.000000 0.000000
vn 0.000000 1.000000 0.000000
vn 0.000000 1.000000 0.000000
vn 0.000000 0.000000 1.000000
vn 0.000000 0.000000 1.000000
vn 0.000000 0.000000 1.000000
vn 0.000000 0.000000 1.000000
vn 0.000000 -1.000000 -0.000000
vn 0.000000 -1.000000 -0.000000
vn 0.000000 -1.000000 -0.000000
vn 0.000000 -1.000000 -0.000000
vn -0.999395 -0.000000 -0.034767
vn -0.999395 -0.000000 -0.034767
vn -0.941635 -0.000000 -0.336636
vn -0.941635 -0.000000 -0.336636
vn 1.000000 0.000000 0.000000
vn 1.000000 0.000000 0.000000
vn 1.000000 0.000000 0.000000
vn 1.000000 0.000000 0.000000
vn 0.000000 1.000000 0.000000
vn 0.000000 1.000000 0.000000
vn -1.000000 0.000000 0.000000
vn -1.000000 0.000000 0.000000
vn 0.000000 -1.000000 0.000000
vn 0.000000 -1.000000 0.000000
vn 1.000000 0.000000 0.000000
vn 1.000000 0.000000 0.000000
vn 0.000000 -1.000000 0.000000
vn 0.000000 -1.000000 0.000000
vn -1.000000 0.000000 0.000000
vn -1.000000 0.000000 0.000000
vn 0.000000 1.000000 0.000000
vn 0.000000 1.000000 0.000000
vn 1.000000 0.000000 0.000000
vn 1.000000 0.000000 0.000000
s off
g Door_B_Left
usemtl lambert2SG
f 1/29/1 2/36/2 4/24/3 3/33/4
s 1
f 9/31/5 10/22/6 15/5/7 16/25/8
s off
f 5/26/9 6/6/10 8/23/11 7/1/12
s 2
f 13/27/13 14/19/14 11/13/15 12/28/16
s 3
f 10/15/17 11/20/18 14/7/19 15/17/20
s 4
f 16/3/21 13/2/22 12/10/23 9/9/24
s 1
f 3/12/25 4/35/26 10/22/6 9/31/5
s 3
f 2/21/27 11/20/18 10/15/17 4/16/28
s 2
f 12/28/16 11/13/15 2/14/29 1/30/30
s 4
f 9/9/24 12/10/23 1/11/31 3/34/32
s 2
f 7/1/33 8/23/34 14/19/14 13/27/13
s 3
f 15/17/20 14/7/19 8/8/35 6/18/36
s 1
f 16/25/8 15/5/7 6/6/37 5/26/38
s 4
f 7/32/39 13/2/22 16/3/21 5/4/40
