# This file uses centimeters as units for non-parametric coordinates.

mtllib Door_S_Left.mtl
g default
v -6.219029 3.116229 -6.004895
v -6.781258 3.116229 -6.004895
v -6.219029 0.003630 -6.004895
v -6.781258 0.003630 -6.004895
v -6.219029 3.116229 -6.184371
v -6.717094 3.116229 -6.184371
v -6.717094 0.003630 -6.184371
v -6.219029 0.003630 -6.184371
v -6.219029 0.003630 -6.143137
v -6.781258 0.003630 -6.143137
v -6.781258 3.116229 -6.143138
v -6.219029 3.116229 -6.143138
v -6.219029 3.116229 -7.009945
v -6.717094 3.116229 -7.009945
v -6.717094 0.003630 -7.009945
v -6.219029 0.003630 -7.009945
vt 0.966682 0.022738
vt 0.966681 0.504285
vt 0.670091 0.504285
vt 0.889626 0.022738
vt 0.612612 0.752674
vt 0.535988 0.022738
vt 0.535989 0.504285
vt 0.514601 0.504285
vt 0.467465 0.776844
vt 0.467465 0.752674
vt 0.335353 0.022738
vt 0.356740 0.022738
vt 0.542368 0.504285
vt 0.542368 0.022738
vt 0.688794 0.776933
vt 0.485041 0.776844
vt 0.195829 0.022738
vt 0.688794 0.908092
vt 0.485041 0.908076
vt 0.195829 0.504285
vt 0.323553 0.504285
vt 0.335353 0.504285
vt 0.739616 0.504285
vt 0.356740 0.504285
vt 0.704673 0.776933
vt 0.323553 0.022738
vt 0.739616 0.022738
vt 0.704673 0.752674
vt 0.612612 0.908092
vt 0.670091 0.022738
vt 0.560977 0.908076
vt 0.889626 0.504285
vt 0.560977 0.776844
vt 0.560977 0.776844
vt 0.826598 0.504285
vt 0.560977 0.752674
vt 0.612612 0.776933
vt 0.612612 0.776933
vt 0.826598 0.022738
vt 0.514601 0.022738
vn 0.000000 1.000000 -0.000000
vn 0.000000 1.000000 -0.000000
vn 0.000000 1.000000 -0.000000
vn 0.000000 1.000000 -0.000000
vn -0.000000 0.000000 1.000000
vn -0.000000 0.000000 1.000000
vn -0.000000 0.000000 1.000000
vn -0.000000 0.000000 1.000000
vn 0.000000 -1.000000 0.000000
vn 0.000000 -1.000000 0.000000
vn 0.000000 -1.000000 0.000000
vn 0.000000 -1.000000 0.000000
vn -0.997272 0.000000 -0.073820
vn -0.997272 0.000000 -0.073820
vn -0.941635 -0.000000 -0.336637
vn -0.941635 -0.000000 -0.336637
vn 1.000000 0.000000 0.000000
vn 1.000000 0.000000 0.000000
vn 1.000000 0.000000 0.000000
vn 1.000000 0.000000 0.000000
vn 0.000000 1.000000 -0.000000
vn 0.000000 1.000000 -0.000000
vn -1.000000 0.000000 -0.000000
vn -1.000000 0.000000 -0.000000
vn 0.000000 -1.000000 0.000000
vn 0.000000 -1.000000 0.000000
vn 1.000000 0.000000 0.000000
vn 1.000000 0.000000 0.000000
vn 0.000000 -1.000000 0.000000
vn 0.000000 -1.000000 0.000000
vn -1.000000 0.000000 -0.000000
vn -1.000000 0.000000 -0.000000
vn 0.000000 1.000000 -0.000000
vn 0.000000 1.000000 -0.000000
vn 1.000000 0.000000 0.000000
vn 1.000000 0.000000 0.000000
vn 0.000000 -0.000000 -1.000000
vn 0.000000 -0.000000 -1.000000
vn 0.000000 -0.000000 -1.000000
vn 0.000000 -0.000000 -1.000000
s 1
g Door_S_Left group1
usemtl lambert4SG
f 5/33/1 6/16/2 11/9/3 12/34/4
s off
f 1/35/5 2/23/6 4/27/7 3/39/8
s 2
f 9/37/9 10/25/10 7/15/11 8/38/12
s 3
f 6/21/13 7/26/14 10/11/15 11/22/16
s 4
f 12/7/17 9/6/18 8/14/19 5/13/20
s 1
f 13/31/21 14/19/22 6/16/2 5/33/1
s 3
f 14/20/23 15/17/24 7/26/14 6/21/13
s 2
f 8/38/12 7/15/11 15/18/25 16/29/26
s 4
f 5/13/20 8/14/19 16/30/27 13/3/28
s 2
f 3/5/29 4/28/30 10/25/10 9/37/9
s 3
f 11/22/16 10/11/15 4/12/31 2/24/32
s 1
f 12/34/4 11/9/3 2/10/33 1/36/34
s 4
f 3/40/35 9/6/18 12/7/17 1/8/36
s off
f 15/1/37 14/2/38 13/32/39 16/4/40
