# This file uses centimeters as units for non-parametric coordinates.

mtllib Medickit.mtl
g default
v -1.333964 1.336378 4.183523
v -1.045723 1.336378 4.183523
v -1.333964 1.487117 4.183523
v -1.045723 1.487117 4.183523
v -1.333964 1.487117 3.783196
v -1.045723 1.487117 3.783196
v -1.333964 1.336378 3.783196
v -1.045723 1.336378 3.783196
v 1.079540 1.336378 4.183523
v 1.367781 1.336378 4.183523
v 1.079540 1.487117 4.183523
v 1.367781 1.487117 4.183523
v 1.079540 1.487117 3.783196
v 1.367781 1.487117 3.783196
v 1.079540 1.336378 3.783196
v 1.367781 1.336378 3.783196
v -1.500588 -1.819780 4.771462
v -1.500588 1.380220 4.771462
v -1.500588 1.380220 3.225576
v -1.500588 -1.819780 3.225576
v -1.500588 -1.925100 4.876782
v -2.831485 -1.925100 4.876783
v -1.962832 1.548335 4.876783
v -1.500588 1.548335 4.876782
v -1.962832 1.548335 3.120255
v -1.500588 1.548335 3.120255
v -2.831485 -1.925100 3.120255
v -1.500588 -1.925100 3.120255
v -1.500588 0.583908 4.771462
v -1.500588 0.583908 4.876782
v -2.831485 0.583909 4.876783
v -2.831485 0.583909 3.120255
v -1.500588 0.583908 3.120255
v -1.500588 0.583908 3.225576
v -0.863648 1.805521 4.141526
v -0.573333 1.805521 4.141526
v 0.573333 1.805521 4.141526
v 0.856391 1.805521 4.141526
v -0.621140 2.118124 4.141526
v -0.573333 2.118124 4.141526
v 0.573333 2.118124 4.141526
v 0.624170 2.118124 4.141526
v -0.621140 2.118124 3.847758
v -0.573333 2.118124 3.847758
v 0.573333 2.118124 3.847758
v 0.624170 2.118124 3.847758
v -0.863647 1.805521 3.847758
v -0.573333 1.805521 3.847758
v 0.573333 1.805521 3.847758
v 0.856391 1.805521 3.847758
v 0.573333 1.127026 3.847758
v 0.856391 1.127026 3.847758
v 0.856391 1.127026 4.141526
v 0.573333 1.127026 4.141526
v -0.863647 1.336378 3.847758
v -0.573333 1.336378 3.847758
v -0.573333 1.336378 4.141526
v -0.863648 1.336378 4.141526
v 1.500588 -1.819780 4.771462
v 1.500588 1.380220 4.771462
v 1.500588 1.380220 3.225576
v 1.500588 -1.819780 3.225576
v 1.500588 -1.925100 4.876782
v 2.831485 -1.925100 4.876783
v 1.962832 1.548335 4.876783
v 1.500588 1.548335 4.876782
v 1.962832 1.548335 3.120255
v 1.500588 1.548335 3.120255
v 2.831485 -1.925100 3.120255
v 1.500588 -1.925100 3.120255
v 1.500588 0.583908 4.771462
v 1.500588 0.583908 4.876782
v 2.831485 0.583909 4.876783
v 2.831485 0.583909 3.120255
v 1.500588 0.583908 3.120255
v 1.500588 0.583908 3.225576
vt 0.843155 0.087736
vt 0.893124 0.186431
vt 0.843155 0.186431
vt 0.843155 0.126250
vt 0.718916 0.186430
vt 0.718916 0.126250
vt 0.718916 0.224944
vt 0.668947 0.126250
vt 0.843155 0.087736
vt 0.893124 0.186431
vt 0.843155 0.186431
vt 0.843155 0.126250
vt 0.718916 0.186430
vt 0.718916 0.126250
vt 0.718916 0.224944
vt 0.668947 0.126250
vt 0.657395 0.812905
vt 0.657395 0.718474
vt 0.227386 0.867586
vt 0.999422 0.812905
vt 0.281255 0.718349
vt 0.281255 0.812905
vt 0.657395 0.812905
vt 0.657395 0.718349
vt 0.999422 0.812905
vt 0.013855 0.977578
vt 0.240889 0.999755
vt 0.346861 0.812905
vt 0.999422 0.718474
vt 0.657395 0.718474
vt 0.240889 0.867586
vt 0.469653 0.718349
vt 0.999422 0.250238
vt 0.999422 0.437670
vt 0.657395 0.437670
vt 0.227386 0.535571
vt 0.281255 0.437670
vt 0.469653 0.437670
vt 0.657395 0.437670
vt 0.469653 0.437670
vt 0.062624 0.281972
vt 0.326392 0.281812
vt 0.326392 0.343685
vt 0.334687 0.343685
vt 0.560958 0.179085
vt 0.138888 0.343685
vt 0.094355 0.281812
vt 0.001046 0.343720
vt 0.326392 0.343685
vt 0.334687 0.343685
vt 0.138888 0.343685
vt 0.062624 0.343720
vt 0.560958 0.179085
vt 0.371518 0.281812
vt 0.138888 0.281812
vt 0.062624 0.281972
vt 0.371518 0.170452
vt 0.560958 0.050262
vt 0.326392 0.170452
vt 0.062624 0.170110
vt 0.138888 0.170452
vt 0.062624 0.170110
vt 0.094355 0.170452
vt 0.560958 0.050261
vt 0.281255 0.718349
vt 0.469653 0.718349
vt 0.346861 0.812905
vt 0.240889 0.999755
vt 0.657395 0.812905
vt 0.281255 0.812905
vt 0.469653 0.718349
vt 0.000352 0.867586
vt 0.000352 0.522067
vt 0.469653 0.437670
vt 0.657395 0.437670
vt 0.240889 0.522067
vt 0.013855 0.867586
vt 0.013855 0.535571
vt 0.657395 0.718349
vt 0.657395 0.250237
vt 0.469653 0.718349
vt 0.240889 0.867586
vt 0.999422 0.718474
vt 0.227386 0.977578
vt 0.438177 0.814849
vt 0.346861 0.812905
vt 0.281255 0.437670
vt 0.469653 0.437670
vt 0.657395 0.250238
vt 0.657395 0.812905
vt 0.281255 0.718349
vt 0.657395 0.437670
vt 0.469653 0.718349
vt 0.469653 0.437670
vt 0.469653 0.718349
vt 0.346861 0.812905
vt 0.000352 0.867586
vt 0.375481 0.998379
vt 0.281255 0.437670
vt 0.469653 0.437670
vt 0.281255 0.718349
vt 0.281255 0.437670
vt 0.438177 0.998379
vt 0.281255 0.812905
vt 0.000352 0.999755
vt 0.375481 0.998379
vt 0.469653 0.812905
vt 0.375481 0.814849
vt 0.000352 0.999755
vt 0.375481 0.814849
vt 0.438177 0.998379
vt 0.469653 0.812905
vt 0.469653 0.250237
vt 0.469653 0.437670
vt 0.657395 0.437670
vt 0.469653 0.437670
vt 0.240889 0.522067
vt 0.000352 0.522067
vt 0.657395 0.250237
vt 0.469653 0.250237
vt 0.281255 0.812905
vt 0.438177 0.814849
vt 0.657395 0.437670
vt 0.657395 0.812905
vt 0.657395 0.998379
vt 0.999422 0.437670
vt 0.227386 0.867586
vt 0.227386 0.535571
vt 0.999422 0.437670
vt 0.013855 0.867586
vt 0.013855 0.977578
vt 0.999422 0.998379
vt 0.013855 0.535571
vt 0.657395 0.437670
vt 0.227386 0.977578
vt 0.999422 0.812905
vt 0.371518 0.281812
vt 0.371518 0.170452
vt 0.001978 0.092758
vt 0.498883 0.050262
vt 0.326392 0.281812
vt 0.326392 0.170452
vt 0.001046 0.281972
vt 0.001046 0.170110
vt 0.138888 0.281812
vt 0.138888 0.170452
vt 0.001046 0.281972
vt 0.001046 0.170110
vt 0.094355 0.281812
vt 0.094355 0.170452
vt 0.250279 0.032830
vt 0.498883 0.050261
vt 0.130018 0.343685
vt 0.334687 0.406016
vt 0.130018 0.343685
vt 0.138888 0.406016
vt 0.326392 0.406016
vt 0.130018 0.406016
vt 0.062624 0.343720
vt 0.001046 0.343720
vt 0.498883 0.179085
vt 0.250279 0.092758
vt 0.001978 0.032830
vt 0.498883 0.179085
vt 0.668947 0.186431
vt 0.718916 0.087736
vt 0.843155 0.224944
vt 0.893124 0.126250
vt 0.668947 0.186430
vt 0.718916 0.087736
vt 0.843155 0.224944
vt 0.893124 0.126250
vn 0.000000 0.000000 1.000000
vn 0.000000 0.000000 1.000000
vn 0.000000 0.000000 1.000000
vn 0.000000 0.000000 1.000000
vn 0.000000 1.000000 0.000000
vn 0.000000 1.000000 0.000000
vn 0.000000 1.000000 0.000000
vn 0.000000 1.000000 0.000000
vn 0.000000 0.000000 -1.000000
vn 0.000000 0.000000 -1.000000
vn 0.000000 0.000000 -1.000000
vn 0.000000 0.000000 -1.000000
vn 1.000000 0.000000 0.000000
vn 1.000000 0.000000 0.000000
vn 1.000000 0.000000 0.000000
vn 1.000000 0.000000 0.000000
vn -1.000000 0.000000 0.000000
vn -1.000000 0.000000 0.000000
vn -1.000000 0.000000 0.000000
vn -1.000000 0.000000 0.000000
vn 0.000000 0.000000 1.000000
vn 0.000000 0.000000 1.000000
vn 0.000000 0.000000 1.000000
vn 0.000000 0.000000 1.000000
vn 0.000000 1.000000 0.000000
vn 0.000000 1.000000 0.000000
vn 0.000000 1.000000 0.000000
vn 0.000000 1.000000 0.000000
vn 0.000000 0.000000 -1.000000
vn 0.000000 0.000000 -1.000000
vn 0.000000 0.000000 -1.000000
vn 0.000000 0.000000 -1.000000
vn 1.000000 0.000000 0.000000
vn 1.000000 0.000000 0.000000
vn 1.000000 0.000000 0.000000
vn 1.000000 0.000000 0.000000
vn -1.000000 0.000000 0.000000
vn -1.000000 0.000000 0.000000
vn -1.000000 0.000000 0.000000
vn -1.000000 0.000000 0.000000
vn 0.000000 0.000000 1.000000
vn 0.000000 0.000000 1.000000
vn 0.000000 0.000000 1.000000
vn 0.000000 0.000000 1.000000
vn 0.000001 -0.000000 1.000000
vn 0.000001 -0.000000 1.000000
vn 0.000001 -0.000000 1.000000
vn 0.000001 -0.000000 1.000000
vn 0.000000 1.000000 0.000000
vn 0.000000 1.000000 0.000000
vn 0.000000 1.000000 0.000000
vn 0.000000 1.000000 0.000000
vn 0.000001 1.000000 0.000000
vn 0.000001 1.000000 0.000000
vn 0.000001 1.000000 0.000000
vn 0.000001 1.000000 0.000000
vn 0.000000 0.000000 -1.000000
vn 0.000000 0.000000 -1.000000
vn 0.000000 0.000000 -1.000000
vn 0.000000 0.000000 -1.000000
vn -0.000000 0.000000 -1.000000
vn -0.000000 0.000000 -1.000000
vn 0.000000 0.000000 -1.000000
vn -0.000000 0.000000 -1.000000
vn 0.000000 -1.000000 0.000000
vn 0.000000 -1.000000 0.000000
vn 0.000000 -1.000000 0.000000
vn 0.000000 -1.000000 0.000000
vn 0.000000 -1.000000 0.000000
vn 0.000000 -1.000000 0.000000
vn 0.000000 -1.000000 0.000000
vn 0.000000 -1.000000 0.000000
vn -0.970123 0.242613 0.000000
vn -0.743038 0.669249 0.000000
vn -0.743038 0.669249 0.000000
vn -0.970123 0.242613 0.000000
vn 1.000000 0.000000 0.000000
vn 1.000000 0.000000 0.000000
vn 1.000000 0.000000 0.000000
vn 1.000000 0.000000 0.000000
vn 1.000000 0.000000 0.000000
vn 1.000000 0.000000 0.000000
vn 1.000000 0.000000 0.000000
vn 1.000000 0.000000 0.000000
vn 1.000000 0.000000 0.000000
vn 1.000000 0.000000 0.000000
vn 1.000000 0.000000 0.000000
vn 1.000000 0.000000 0.000000
vn 0.000000 0.000000 1.000000
vn 0.000000 0.000000 1.000000
vn 0.000001 0.000000 1.000000
vn 0.000001 0.000000 1.000000
vn -1.000000 0.000000 0.000000
vn -1.000000 0.000000 0.000000
vn 0.000000 0.000000 -1.000000
vn 0.000000 0.000000 -1.000000
vn 0.000000 0.000000 -1.000000
vn 0.000000 0.000000 -1.000000
vn 0.000000 0.000000 1.000000
vn 0.000000 0.000000 1.000000
vn 0.000000 0.000000 1.000000
vn 0.000000 0.000000 1.000000
vn 0.000000 0.000000 1.000000
vn 0.000000 0.000000 1.000000
vn 0.000000 0.000000 1.000000
vn 0.000000 0.000000 1.000000
vn 0.000000 1.000000 -0.000000
vn 0.000000 1.000000 -0.000000
vn 0.000000 1.000000 -0.000000
vn 0.000000 1.000000 -0.000000
vn 0.000000 1.000000 0.000000
vn 0.000000 1.000000 0.000000
vn 0.000000 1.000000 0.000000
vn 0.000000 1.000000 0.000000
vn 0.000000 0.000000 -1.000000
vn 0.000000 0.000000 -1.000000
vn 0.000000 0.000000 -1.000000
vn 0.000000 0.000000 -1.000000
vn 0.000000 0.000000 -1.000000
vn 0.000000 0.000000 -1.000000
vn 0.000000 0.000000 -1.000000
vn 0.000000 0.000000 -1.000000
vn 0.000000 -1.000000 0.000000
vn 0.000000 -1.000000 0.000000
vn 0.000000 -1.000000 0.000000
vn 0.000000 -1.000000 0.000000
vn 0.802742 0.596326 0.000000
vn 0.802742 0.596326 0.000000
vn 0.802742 0.596326 0.000000
vn 0.802742 0.596326 0.000000
vn -0.790121 0.612951 -0.000000
vn -0.790121 0.612951 -0.000000
vn -0.790121 0.612951 -0.000000
vn -0.790121 0.612951 -0.000000
vn 0.000000 0.000000 -1.000000
vn 0.000000 0.000000 -1.000000
vn 1.000000 0.000000 0.000000
vn 1.000000 0.000000 0.000000
vn 1.000000 0.000000 0.000000
vn 1.000000 0.000000 0.000000
vn 0.000000 0.000000 1.000000
vn 0.000000 0.000000 1.000000
vn -1.000000 0.000000 0.000000
vn -1.000000 0.000000 0.000000
vn -1.000000 0.000000 0.000000
vn -1.000000 0.000000 0.000000
vn 0.000000 0.000000 -1.000000
vn 0.000000 0.000000 -1.000000
vn 1.000000 0.000000 0.000000
vn 1.000000 0.000000 0.000000
vn 1.000000 0.000000 0.000000
vn 1.000000 0.000000 0.000000
vn 0.000000 0.000000 1.000000
vn 0.000000 0.000000 1.000000
vn -1.000000 0.000000 -0.000000
vn -1.000000 0.000000 -0.000000
vn -1.000000 0.000000 -0.000000
vn -1.000000 0.000000 -0.000000
vn -0.000001 -0.000000 1.000000
vn -0.000001 -0.000000 1.000000
vn -0.000002 -0.000000 1.000000
vn -0.000002 -0.000000 1.000000
vn -0.000001 1.000000 0.000000
vn -0.000001 1.000000 0.000000
vn -0.000001 1.000000 0.000000
vn -0.000001 1.000000 0.000000
vn 0.000000 0.000000 -1.000000
vn 0.000000 0.000000 -1.000000
vn 0.000000 0.000000 -1.000000
vn 0.000000 0.000000 -1.000000
vn -0.000000 -1.000000 0.000000
vn -0.000000 -1.000000 0.000000
vn -0.000000 -1.000000 0.000000
vn -0.000000 -1.000000 0.000000
vn 0.970123 0.242613 0.000000
vn 0.970123 0.242613 0.000000
vn 0.743038 0.669249 0.000000
vn 0.743038 0.669249 0.000000
vn -1.000000 0.000000 0.000000
vn -1.000000 0.000000 0.000000
vn -1.000000 0.000000 0.000000
vn -1.000000 0.000000 0.000000
vn -1.000000 0.000000 0.000000
vn -1.000000 0.000000 0.000000
vn -1.000000 0.000000 0.000000
vn -1.000000 0.000000 0.000000
vn -1.000000 -0.000000 0.000000
vn -1.000000 -0.000000 0.000000
vn -1.000000 -0.000000 0.000000
vn -1.000000 -0.000000 0.000000
vn -0.000001 0.000000 1.000000
vn -0.000001 0.000000 1.000000
vn 1.000000 0.000000 0.000000
vn 1.000000 0.000000 0.000000
vn 0.000000 0.000000 -1.000000
vn 0.000000 0.000000 -1.000000
s off
g pCube18
usemtl lambert2SG
f 1/172/1 2/2/2 4/3/3 3/4/4
f 3/4/5 4/3/6 6/5/7 5/6/8
f 5/6/9 6/5/10 8/169/11 7/8/12
f 2/171/13 8/7/14 6/5/15 4/3/16
f 7/170/17 1/1/18 3/4/19 5/6/20
f 9/168/21 10/10/22 12/11/23 11/12/24
f 11/12/25 12/11/26 14/13/27 13/14/28
f 13/14/29 14/13/30 16/165/31 15/16/32
f 10/167/33 16/15/34 14/13/35 12/11/36
f 15/166/37 9/9/38 11/12/39 13/14/40
s 1
f 18/17/41 29/18/42 71/83/43 60/20/44
s 2
f 30/21/45 24/22/46 23/96/47 31/95/48
s off
f 19/25/49 18/132/50 60/125/51 61/90/52
f 24/98/53 26/110/54 25/122/55 23/111/56
s 3
f 34/29/57 19/136/58 61/124/59 76/30/60
s 4
f 26/121/61 33/91/62 32/32/63 25/28/64
s off
f 17/33/65 20/129/66 62/123/67 59/89/68
f 28/92/69 21/38/70 22/120/71 27/119/72
s 5
f 31/24/73 23/23/74 25/112/75 32/93/76
s 6
f 18/131/77 24/109/78 30/97/79 29/130/80
f 19/135/81 26/27/82 24/109/78 18/131/77
f 33/31/83 26/27/82 19/135/81 34/127/84
f 17/133/85 21/118/86 28/117/87 20/128/88
s 1
f 29/18/42 17/134/89 59/126/90 71/83/43
s 6
f 30/97/79 21/118/86 17/133/85 29/130/80
s 2
f 21/99/91 30/21/45 31/95/48 22/100/92
s 5
f 22/39/93 31/24/73 32/93/76 27/40/94
s 4
f 33/91/62 28/37/95 27/94/96 32/32/63
s 6
f 20/128/88 28/117/87 33/31/83 34/127/84
s 3
f 20/34/97 34/29/57 76/30/60 62/35/98
s 7
f 35/137/99 36/42/100 40/43/101 39/44/102
f 40/43/101 36/42/100 37/145/103 41/46/104
f 37/145/103 38/47/105 42/155/106 41/46/104
s 8
f 39/44/107 40/43/108 44/157/109 43/154/110
f 44/157/109 40/43/108 41/46/111 45/156/112
f 41/46/111 42/155/113 46/158/114 45/156/112
s 9
f 43/50/115 44/49/116 48/141/117 47/54/118
f 48/141/117 44/49/116 45/51/119 49/55/120
f 45/51/119 46/153/121 50/149/122 49/55/120
s off
f 37/162/123 36/139/124 48/163/125 49/151/126
f 38/147/127 50/56/128 46/52/129 42/48/130
f 47/143/131 35/41/132 39/159/133 43/160/134
s 9
f 49/55/120 50/149/122 52/150/135 51/61/136
s off
f 50/56/137 38/147/138 53/148/139 52/62/140
s 7
f 38/47/105 37/145/103 54/146/141 53/63/142
s off
f 37/45/143 49/161/144 51/152/145 54/64/146
s 9
f 47/54/118 48/141/117 56/142/147 55/57/148
s off
f 48/53/149 36/164/150 57/140/151 56/58/152
s 7
f 36/42/100 35/137/99 58/138/153 57/59/154
s off
f 35/41/155 47/143/156 55/144/157 58/60/158
s 10
f 72/65/159 73/81/160 65/67/161 66/104/162
s off
f 66/103/163 65/106/164 67/108/165 68/85/166
s 11
f 68/70/167 67/86/168 74/71/169 75/101/170
s off
f 70/113/171 69/80/172 64/75/173 63/114/174
s 12
f 73/66/175 74/79/176 67/69/177 65/107/178
s 13
f 60/84/179 71/19/180 72/82/181 66/68/182
f 61/26/183 60/84/179 66/68/182 68/105/184
f 75/72/185 76/77/186 61/26/183 68/105/184
f 59/36/187 62/78/188 70/73/189 63/76/190
f 72/82/181 71/19/180 59/36/187 63/76/190
s 10
f 63/87/191 64/88/192 73/81/160 72/65/159
s 12
f 64/116/193 69/115/194 74/79/176 73/66/175
s 11
f 75/101/170 74/71/169 69/74/195 70/102/196
s 13
f 62/78/188 76/77/186 75/72/185 70/73/189
