# This file uses centimeters as units for non-parametric coordinates.

mtllib Ammo.mtl
g default
v 3.593771 -0.160232 6.045523
v 3.593771 -0.160232 0.911498
v -3.423780 -0.160232 6.045521
v -3.423780 -0.160232 0.911498
v 3.593771 4.868750 6.045523
v 3.593771 4.868750 0.911498
v -0.622423 4.868750 0.911498
v -0.622423 4.868750 6.045521
v 3.593771 1.786005 6.045523
v 3.593771 2.294426 6.045523
v 3.593771 1.786005 0.911498
v 3.593771 2.294426 0.911498
v -3.423780 1.724518 6.045521
v -3.423777 2.196697 6.045521
v -3.423780 1.724518 0.911498
v -3.423777 2.196697 0.911498
vt 0.310975 0.296739
vt 0.686338 0.966878
vt -0.000084 0.010143
vt 0.686338 0.750260
vt 0.374832 0.750260
vt 0.374832 0.966878
vt 0.310975 0.010143
vt -0.000084 0.296739
vt 0.682113 0.332044
vt 0.682113 0.377303
vt 0.315962 0.377303
vt 0.689836 0.435565
vt 1.000303 0.390306
vt 1.000303 0.435565
vt 0.315962 0.377303
vt 0.682113 0.332044
vt 0.682113 0.377303
vt 0.310975 0.520310
vt 0.310975 0.563006
vt -0.000084 0.563006
vt 0.689836 0.230599
vt 1.000303 0.230599
vt 0.689836 0.390306
vt -0.000084 0.520310
vt -0.000084 0.376259
vt 0.310975 0.376259
vt 0.315962 0.190713
vt 0.682113 0.190713
vt 0.315962 0.332044
vt 0.315962 0.190713
vt 0.682113 0.190713
vt 0.315962 0.332044
vt 0.689685 0.443182
vt 1.000262 0.443182
vt 1.000262 0.702024
vt 0.689685 0.702024
vt 0.680556 0.443357
vt 0.313472 0.443357
vt 0.459277 0.703902
vt 0.680556 0.703902
vt 0.000444 0.628856
vt 0.311021 0.628856
vt 0.311021 0.887698
vt 0.000444 0.887698
vt 0.313472 0.443357
vt 0.680556 0.443357
vt 0.680556 0.703902
vt 0.459277 0.703902
vn 0.000000 1.000000 0.000000
vn 0.000000 1.000000 0.000000
vn 0.000000 1.000000 0.000000
vn 0.000000 1.000000 0.000000
vn 0.000000 -1.000000 0.000000
vn 0.000000 -1.000000 0.000000
vn 0.000000 -1.000000 0.000000
vn 0.000000 -1.000000 0.000000
vn -0.000000 0.000000 1.000000
vn -0.000000 0.000000 1.000000
vn -0.000000 0.000000 1.000000
vn -0.000000 0.000000 1.000000
vn 1.000000 0.000000 0.000000
vn 1.000000 0.000000 0.000000
vn 1.000000 0.000000 0.000000
vn 1.000000 0.000000 0.000000
vn 0.000000 0.000000 -1.000000
vn 0.000000 0.000000 -1.000000
vn 0.000000 0.000000 -1.000000
vn 0.000000 0.000000 -1.000000
vn -1.000000 0.000007 -0.000000
vn -1.000000 0.000007 -0.000000
vn -1.000000 0.000007 -0.000000
vn -1.000000 0.000007 -0.000000
vn 1.000000 0.000000 0.000000
vn 1.000000 0.000000 0.000000
vn 1.000000 0.000000 0.000000
vn 1.000000 0.000000 0.000000
vn -1.000000 0.000000 -0.000000
vn -1.000000 0.000000 -0.000000
vn -1.000000 0.000000 -0.000000
vn -1.000000 0.000000 -0.000000
vn 0.000000 0.000000 -1.000000
vn 0.000000 0.000000 -1.000000
vn 0.000000 0.000000 -1.000000
vn 0.000000 0.000000 -1.000000
vn -0.000000 0.000000 1.000000
vn -0.000000 0.000000 1.000000
vn -0.000000 0.000000 1.000000
vn -0.000000 0.000000 1.000000
vn 1.000000 0.000000 0.000000
vn 1.000000 0.000000 0.000000
vn 1.000000 0.000000 0.000000
vn 1.000000 0.000000 0.000000
vn -0.000000 0.000000 -1.000000
vn -0.000000 0.000000 -1.000000
vn -0.000000 0.000000 -1.000000
vn -0.000000 0.000000 -1.000000
vn -0.690210 0.723609 -0.000000
vn -0.690210 0.723609 -0.000000
vn -0.690210 0.723609 -0.000000
vn -0.690210 0.723609 -0.000000
vn -0.000000 0.000000 1.000000
vn -0.000000 0.000000 1.000000
vn -0.000000 0.000000 1.000000
vn -0.000000 0.000000 1.000000
s off
g Ammo_box_Ingame
usemtl lambert2SG
f 5/2/1 6/6/2 7/5/3 8/4/4
f 3/3/5 4/7/6 2/1/7 1/8/8
f 9/9/9 10/10/10 14/11/11 13/32/12
f 10/12/13 9/23/14 11/13/15 12/14/16
f 12/15/17 11/29/18 15/16/19 16/17/20
f 13/18/21 14/19/22 16/20/23 15/24/24
f 1/21/25 2/22/26 11/13/27 9/23/28
f 13/18/29 15/24/30 4/25/31 3/26/32
f 2/27/33 4/28/34 15/16/35 11/29/36
f 3/30/37 1/31/38 9/9/39 13/32/40
f 10/33/41 12/34/42 6/35/43 5/36/44
f 12/37/45 16/38/46 7/39/47 6/40/48
f 16/41/49 14/42/50 8/43/51 7/44/52
f 14/45/53 10/46/54 5/47/55 8/48/56
